<svg aria-hidden="true" style="position:absolute;width:0;height:0;overflow:hidden" xmlns="http://www.w3.org/2000/svg"><defs><symbol id="icon-antenna" viewBox="0 0 32 32"><path fill="#212121" style="fill:var(--color1, #212121)" d="m30.77 22.1-8.44-8.5.94-4.62c.24.09.5.14.76.14h.03a2.16 2.16 0 1 0-2.03-1.42V7.7l-4.96.6L8.97.16A.54.54 0 0 0 8.6 0a.52.52 0 0 0-.37.15L6.7 1.65a.53.53 0 0 0 0 .76l.82.82a14.9 14.9 0 0 0 2.52 17.66c.04.05.09.08.14.1-.03.2-.05.38-.05.56v6.18h-6.4a2.67 2.67 0 0 0-2.67 2.67v1.06c0 .3.24.54.54.54h24.53c.3 0 .53-.24.53-.54V30.4c0-1.47-1.2-2.67-2.66-2.67h-6.4V25a14.79 14.79 0 0 0 10.17-1.5l-.08.04.81.82c.1.1.24.16.38.16s.27-.06.37-.15l1.51-1.51a.53.53 0 0 0 0-.75zm-7.5-15.87A1.06 1.06 0 0 1 25.1 7c0 .59-.47 1.06-1.06 1.06a1.07 1.07 0 0 1-.75-1.82zm-1.25 3.5-.6 2.95-1.17-1.18 1.77-1.76zm-.6-.9-1.92 1.91L18 9.25l3.4-.41zM24 28.8c.89 0 1.6.72 1.6 1.6v.54H2.14v-.54c0-.88.72-1.6 1.6-1.6H24zm-7.46-2.14v1.07H11.2v-1.07h5.34zM11.2 25.6v-4.05c0-1.3 1.2-2.35 2.67-2.35s2.66 1.05 2.66 2.35v4.05H11.2zm6.4-1.7v-2.35c0-1.88-1.67-3.41-3.73-3.41h-.07a3.8 3.8 0 0 0-3.2 1.76l-.02.02A13.81 13.81 0 0 1 8.34 3.96l-.03.07 18.6 18.71a13.64 13.64 0 0 1-9.4 1.15l.1.01zm11.3-.68-.76-.76L7.84 2.04l.75-.75 21.06 21.18-.76.75z"/><path fill="#2196f3" style="fill:var(--color2, #2196f3)" d="M13.87 20.27a1.6 1.6 0 0 0 0 3.2 1.6 1.6 0 0 0 0-3.2zm.38 1.98a.53.53 0 0 1-.91-.38c0-.3.23-.54.53-.54a.54.54 0 0 1 .37.91z"/></symbol><symbol id="icon-astronaut" viewBox="0 0 32 32"><path fill="#2196f3" style="fill:var(--color2, #2196f3)" d="M31.97 4.53a.54.54 0 0 0-.43-.37l-1.9-.27-.86-1.74c-.18-.36-.78-.36-.96 0l-.85 1.74-1.9.27a.54.54 0 0 0-.3.92l1.38 1.34-.33 1.9v.09a.53.53 0 0 0 .78.47l1.7-.9 1.71.9a.53.53 0 0 0 .78-.57v.01l-.33-1.9 1.39-1.35c.14-.14.2-.35.13-.55zm-2.46 1.32a.53.53 0 0 0-.15.47l.19 1.12-1-.53a.52.52 0 0 0-.5 0l-1 .53.2-1.12a.53.53 0 0 0-.16-.47l-.81-.79 1.12-.16a.54.54 0 0 0 .4-.3l.5-1 .5 1c.08.16.23.27.4.3l1.12.16-.8.8zm-3.38 14.68h-1.06v1.06h1.07v-1.07zm0 2.13h-1.06v1.06h1.07v-1.06zm1.07-1.07h-1.06v1.07h1.06v-1.07zm-2.13 0H24v1.07h1.06v-1.07zm-2.67 4.8h-1.06v1.07h1.06v-1.07zm0 2.14h-1.06v1.06h1.06v-1.07zm1.07-1.07H22.4v1.06h1.06v-1.06zm-2.13 0h-1.07v1.06h1.07v-1.06zM16 24.26h-1.06v1.06H16v-1.06zm0 2.13h-1.06v1.07H16v-1.07zm1.07-1.06H16v1.06h1.06v-1.07zm-2.13 0h-1.07v1.06h1.07v-1.07zM5.87 6.13H4.8v1.06h1.07V6.12zm0 2.13H4.8v1.06h1.07V8.26zm1.06-1.07H5.86v1.07h1.07V7.19zm-2.13 0H3.74v1.07H4.8V7.19z"/><path fill="#212121" style="fill:var(--color1, #212121)" d="M24.71 14.16c-.28-.38-.7-.64-1.18-.7a1.77 1.77 0 0 0-1.34.35l-1.25.96-1.9 1.41-1.36-.54A6.93 6.93 0 0 0 14.83 2.4a6.95 6.95 0 0 0-5.84 10.7l-2.77-.03H6.2c-.06 0-.1.02-.16.03l-.03.02h-.03l-3.23 1.6-1.9.91a1.78 1.78 0 0 0 1.8 3.09h-.02l1.39-.73 2.26-1.17 1.36-.01-6.78 6.76a1.64 1.64 0 0 0 0 2.35 1.66 1.66 0 0 0 2.36 0l1.3-1.31 1.75-1.3.9.9-1.76 1.75-1.34 1.33a1.64 1.64 0 0 0 0 2.36 1.66 1.66 0 0 0 2.36 0l3.48-3.47 1.01-1 .02-.03 5.16-5.66 3.48.5h.06a.5.5 0 0 0 .2-.03l.05-.03.06-.02 3.21-2.13.03-.04.04-.02 1.27-1.2a1.78 1.78 0 0 0 .2-2.36h.01zm-22.58 3.6a.72.72 0 0 1-.78-1.2l1.32-.63.32.92.13.4-.99.52zm3.5-1.82-1.55.8-.26-.74-.18-.54 2.03-1-.04 1.48zm15.1-6.61a5.8 5.8 0 0 1-.6 2.56l-4.18-1.9a1.86 1.86 0 0 0-.78-1.39h-.01l1.46-4.86a5.87 5.87 0 0 1 4.1 5.59zm-11.8 0a5.89 5.89 0 0 1 6.68-5.82h-.03l-1.44 4.75h-.05c-1.03 0-1.87.83-1.87 1.86a1.87 1.87 0 0 0 3.48.93l3.87 1.75A5.9 5.9 0 0 1 8.93 9.33zm5.96.8a.8.8 0 1 1-1.61 0 .8.8 0 0 1 1.61 0zM2.47 25.15a.61.61 0 0 1-.86 0 .6.6 0 0 1 0-.85l.96-.96.86.85-.97.95zm3.21 3.73a.6.6 0 0 1-.85-.84l.96-.96.85.84-.96.96zm3.49-3.47L7.4 27.17l-.85-.85 1.76-1.75.1-.14.02-.04a.37.37 0 0 0 .02-.12l.02-.08-.02-.1-.02-.1a.7.7 0 0 0-.09-.14l-.03-.04-1.6-1.6-.06-.03c-.03-.03-.06-.05-.1-.06a.5.5 0 0 0-.08-.03.54.54 0 0 0-.1-.03l-.1.01-.1.02a.31.31 0 0 0-.1.05l-.06.02-1.77 1.33-.9-.9 2.4-2.39 4.36 4.3-.93.9zm6.81-7.02h-.07a.52.52 0 0 0-.35.14l-.05.03-4.7 5.15-4.32-4.25 2.83-2.83c.1-.1.16-.23.16-.37 0-.3-.24-.54-.53-.54l-2.23.01.03-1.6 3.1.02a6.93 6.93 0 0 0 6.31 1.97l-.04.01c.03.03.08.07.13.09l2.4.96.16.76.18.88-3-.42zm4.04.18-.3-1.55 1.44-1.08.38.5.56.75-2.08 1.38zm3.76-2.83-.84.79-.93-1.24.83-.64a.73.73 0 0 1 .55-.14.72.72 0 0 1 .4 1.23z"/><path fill="#212121" style="fill:var(--color1, #212121)" d="m13.6 18.55-2.14-2.14a.53.53 0 0 0-.75 0l-2.15 2.14a.53.53 0 0 0 0 .75l2.15 2.13a.53.53 0 0 0 .75 0l2.14-2.13a.53.53 0 0 0 0-.75zm-2.51 1.75-1.4-1.37 1.39-1.39 1.39 1.39-1.4 1.38zm6.08-15.23-.27 1.04c.08.01 1.74.45 1.74 2.15h1.07c0-2.02-1.67-2.97-2.54-3.19zm2.54 4.26h-1.07v1.06h1.07V9.32z"/></symbol><symbol id="icon-clock" viewBox="0 0 32 32"><path fill="#212121" style="fill:var(--color1, #212121)" d="M31.3 15.3a15.3 15.3 0 1 0-20.07 14.55l.1.03a.68.68 0 0 0 .54-.06c.14-.08.23-.2.28-.36l3.86-12.25a1.91 1.91 0 1 0-.85-3.63h.01l-5.1-5.1a.64.64 0 0 0-.9.9l5.1 5.1a1.87 1.87 0 0 0 .53 2.3v.01l-3.68 11.67a14.04 14.04 0 1 1 10.66-.38l-.09.03-.4-1.87a.64.64 0 0 0-1.05-.34l-3.83 3.42a.64.64 0 0 0 .22 1.08l4.9 1.57a.64.64 0 0 0 .82-.75l-.39-1.83a15.28 15.28 0 0 0 9.33-14.06v-.03zM16 14.66a.64.64 0 0 1 0 1.28.64.64 0 0 1 0-1.28zm2.1 14.87 2.18-1.95.6 2.84-2.8-.9z"/><path fill="#2196f3" style="fill:var(--color2, #2196f3)" d="M15.36 3.19v1.33a.64.64 0 1 0 1.27-.06V3.18a.64.64 0 0 0-1.28 0zM3.88 14.66a.64.64 0 0 0 0 1.28h1.27a.64.64 0 0 0 0-1.28H3.87zm24.23 1.28a.64.64 0 0 0 0-1.28h-1.28a.64.64 0 0 0 0 1.28h1.28z"/></symbol><symbol id="icon-diagram" viewBox="0 0 32 32"><path fill="#2196f3" style="fill:var(--color2, #2196f3)" d="M14.93 14.97h1.06v4.8h-1.06v-4.8zm4.26 2.13h1.07v2.66h-1.07V17.1zm-8.53 1.6h1.07v1.06h-1.07V18.7zm-3.2-.54h1.07v1.6H7.46v-1.6z"/><path fill="#212121" style="fill:var(--color1, #212121)" d="M1.6 28.3h25.59c.88 0 1.6-.72 1.6-1.6v-2.14c0-.89-.72-1.6-1.6-1.6h-.54V9.67l3.03-2.87a1.6 1.6 0 1 0-.75-.75v-.01L26.65 8.2V6.97c0-.88-.71-1.6-1.6-1.6H3.73c-.88 0-1.6.72-1.6 1.6v16H1.6c-.88 0-1.6.71-1.6 1.6v2.12c0 .89.72 1.6 1.6 1.6zM30.39 4.83h.04a.53.53 0 1 1-.05 1.06.54.54 0 0 1 0-1.06zM3.2 6.97c0-.3.24-.53.53-.53h21.32c.3 0 .54.23.54.53V9.2l-1.07 1.01V8.04c0-.3-.24-.54-.53-.54H4.8c-.3 0-.53.24-.53.54v13.32c0 .3.24.53.53.53H24c.29 0 .53-.23.53-.53V11.7l1.06-1.01v12.28H3.2v-16zM8 13.9h-.01a1.6 1.6 0 1 0 1.11 2.74l1.86.94c.21.1.47.05.63-.13l3.94-4.43 3.87 2.9c.21.16.5.14.69-.03l3.37-3.2v8.14H5.33V8.56h18.13v2.66l-3.78 3.57-3.9-2.92a.54.54 0 0 0-.72.07l-4 4.5-1.49-.75.03-.2c0-.88-.72-1.6-1.6-1.6zm.53 1.6a.53.53 0 1 1-1.07 0 .53.53 0 1 1 1.07 0zm3.2 8.53h5.32v.53c0 .3-.24.53-.53.53h-4.26a.54.54 0 0 1-.54-.53v-.53zm-10.67.53c0-.3.24-.53.54-.53h9.06v.53c0 .88.71 1.6 1.6 1.6h4.26c.89 0 1.6-.72 1.6-1.6v-.53h9.06c.3 0 .53.24.53.53v2.13c0 .3-.23.53-.53.53H1.6a.53.53 0 0 1-.53-.53v-2.13z"/></symbol><symbol id="icon-mail" viewBox="0 0 64 32"><path fill="#757575" style="fill:var(--color3, #757575)" d="M3.1 0H.31A.32.32 0 0 0 0 .32v1.92c0 .18.14.32.32.32h2.77c.18 0 .32-.14.32-.32V.32A.32.32 0 0 0 3.1 0zm0 .21a.1.1 0 0 1 .04.01L1.7 1.46.28.22h2.81zm0 2.14H.31a.1.1 0 0 1-.1-.11V.44l1.42 1.24c.01.02.04.03.07.03s.05-.01.07-.03L3.2.45v1.79a.1.1 0 0 1-.1.1z"/></symbol><symbol id="icon-smartphone" viewBox="0 0 64 32"><path fill="#757575" style="fill:var(--color3, #757575)" d="M1.81 0H.32A.32.32 0 0 0 0 .32v2.77c0 .18.14.32.32.32h1.5c.17 0 .31-.14.31-.32V.32A.32.32 0 0 0 1.81 0zM.32.21h1.5c.05 0 .1.05.1.11v2.24H.22V.32c0-.06.04-.1.1-.1zm1.5 2.99H.31a.1.1 0 0 1-.1-.1v-.33h1.7v.32a.1.1 0 0 1-.1.11z"/><path fill="#757575" style="fill:var(--color3, #757575)" d="M.5 2.93a.1.1 0 0 1 0 .14c-.02.02-.04.03-.07.03s-.06-.01-.08-.03C.33 3.05.32 3.03.32 3s.01-.05.03-.07c.04-.04.1-.04.15 0z"/></symbol><symbol id="icon-fb" viewBox="0 0 64 32"><path fill="#afb1b8" style="fill:var(--color4, #afb1b8)" d="M2.84.7h.4V.04c-.07 0-.3-.03-.57-.03-.57 0-.95.35-.95 1v.6H1.1v.76h.62v1.9h.76v-1.9h.6l.09-.76h-.7v-.52c0-.22.07-.37.37-.37z"/></symbol><symbol id="icon-fb-footer" viewBox="0 0 64 32"><path fill="#fff" style="fill:var(--color5, #fff)" d="M2.84.7h.4V.04c-.07 0-.3-.03-.57-.03-.57 0-.95.35-.95 1v.6H1.1v.76h.62v1.9h.76v-1.9h.6l.09-.76h-.7v-.52c0-.22.07-.37.37-.37z"/></symbol><symbol id="icon-insta" viewBox="0 0 64 32"><path fill="#afb1b8" style="fill:var(--color4, #afb1b8)" d="M4.26 1.25c0-.18-.04-.36-.1-.53v.02a1.04 1.04 0 0 0-.24-.38C3.8.26 3.68.16 3.54.1c-.16-.06-.33-.1-.52-.1a14.4 14.4 0 0 0-.9 0h.02-.88C1.03.02.88.06.74.11a1.07 1.07 0 0 0-.62.63c-.06.15-.1.33-.1.51a14.4 14.4 0 0 0-.01.9v-.02.88c.01.19.05.37.11.53.05.13.14.26.25.37.1.1.23.2.37.25.14.05.3.08.52.1h1.76c.19 0 .36-.05.53-.1h-.01c.28-.12.5-.34.62-.62.05-.15.1-.3.1-.53l.01-.88v-.88zM3.88 3c-.01.2-.04.32-.07.4a.71.71 0 0 1-.4.4H3.4c-.08.03-.2.06-.4.07l-.86.01h-.2l-.7-.01h.04c-.21 0-.32-.04-.4-.07a.66.66 0 0 1-.24-.16.67.67 0 0 1-.16-.24A1.17 1.17 0 0 1 .4 3v-.88.01-.86c.01-.2.05-.32.08-.4C.5.79.57.7.64.64A.65.65 0 0 1 .88.47c.08-.03.2-.06.4-.07l.86-.01L3 .4c.21 0 .32.04.4.07.1.04.18.09.25.16s.12.15.16.25c.02.07.06.19.07.4l.01.85-.01.87z"/><path fill="#afb1b8" style="fill:var(--color4, #afb1b8)" d="M2.14 1.04a1.1 1.1 0 1 0 0 2.2 1.1 1.1 0 1 0 0-2.2zm0 1.8a.71.71 0 0 1 0-1.42.71.71 0 0 1 0 1.42zM3.54 1a.26.26 0 0 1-.52 0 .26.26 0 0 1 .52 0z"/></symbol><symbol id="icon-insta-footer" viewBox="0 0 64 32"><path fill="#fff" style="fill:var(--color5, #fff)" d="M4.26 1.25c0-.18-.04-.36-.1-.53v.02a1.04 1.04 0 0 0-.24-.38C3.8.26 3.68.16 3.54.1c-.16-.06-.33-.1-.52-.1a14.4 14.4 0 0 0-.9 0h.02-.88C1.03.02.88.06.74.11a1.07 1.07 0 0 0-.62.63c-.06.15-.1.33-.1.51a14.4 14.4 0 0 0-.01.9v-.02.88c.01.19.05.37.11.53.05.13.14.26.25.37.1.1.23.2.37.25.14.05.3.08.52.1h1.76c.19 0 .36-.05.53-.1h-.01c.28-.12.5-.34.62-.62.05-.15.1-.3.1-.53l.01-.88v-.88zM3.88 3c-.01.2-.04.32-.07.4a.71.71 0 0 1-.4.4H3.4c-.08.03-.2.06-.4.07l-.86.01h-.2l-.7-.01h.04c-.21 0-.32-.04-.4-.07a.66.66 0 0 1-.24-.16.67.67 0 0 1-.16-.24A1.17 1.17 0 0 1 .4 3v-.88.01-.86c.01-.2.05-.32.08-.4C.5.79.57.7.64.64A.65.65 0 0 1 .88.47c.08-.03.2-.06.4-.07l.86-.01L3 .4c.21 0 .32.04.4.07.1.04.18.09.25.16s.12.15.16.25c.02.07.06.19.07.4l.01.85-.01.87z"/><path fill="#fff" style="fill:var(--color5, #fff)" d="M2.14 1.04a1.1 1.1 0 1 0 0 2.2 1.1 1.1 0 1 0 0-2.2zm0 1.8a.71.71 0 0 1 0-1.42.71.71 0 0 1 0 1.42zM3.54 1a.26.26 0 0 1-.52 0 .26.26 0 0 1 .52 0z"/></symbol><symbol id="icon-linkedin" viewBox="0 0 64 32"><path fill="#afb1b8" style="fill:var(--color4, #afb1b8)" d="M4.27 4.27V2.7c0-.76-.17-1.35-1.06-1.35h-.04a.93.93 0 0 0-.8.45h-.01v-.38H1.5v2.85h.88V2.86c0-.38.07-.74.53-.74s.46.43.46.76v1.39h.89zM.07 1.42h.89v2.85H.07V1.42zM.51 0A.51.51 0 0 0 0 .51c0 .29.23.52.51.52A.52.52 0 0 0 .51 0z"/></symbol><symbol id="icon-linkedin-footer" viewBox="0 0 64 32"><path fill="#fff" style="fill:var(--color5, #fff)" d="M4.27 4.27V2.7c0-.76-.17-1.35-1.06-1.35h-.04a.93.93 0 0 0-.8.45h-.01v-.38H1.5v2.85h.88V2.86c0-.38.07-.74.53-.74s.46.43.46.76v1.39h.89zM.07 1.42h.89v2.85H.07V1.42zM.51 0A.51.51 0 0 0 0 .51c0 .29.23.52.51.52A.52.52 0 0 0 .51 0z"/></symbol><symbol id="icon-twitter" viewBox="0 0 64 32"><path fill="#afb1b8" style="fill:var(--color4, #afb1b8)" d="M4.27.81c-.16.07-.33.12-.5.14.18-.1.31-.28.38-.48-.17.1-.36.17-.56.2a.87.87 0 0 0-1.49.81A2.47 2.47 0 0 1 .3.56a.88.88 0 0 0 .26 1.17.84.84 0 0 1-.39-.1c0 .43.3.78.7.86a.84.84 0 0 1-.4.01c.12.35.45.6.83.61a1.75 1.75 0 0 1-1.3.37c.38.24.84.4 1.33.4h.01a2.47 2.47 0 0 0 2.5-2.5l-.01-.11c.17-.13.32-.28.44-.46z"/></symbol><symbol id="icon-twitter-footer" viewBox="0 0 64 32"><path fill="#fff" style="fill:var(--color5, #fff)" d="M4.27.81c-.16.07-.33.12-.5.14.18-.1.31-.28.38-.48-.17.1-.36.17-.56.2a.87.87 0 0 0-1.49.81A2.47 2.47 0 0 1 .3.56a.88.88 0 0 0 .26 1.17.84.84 0 0 1-.39-.1c0 .43.3.78.7.86a.84.84 0 0 1-.4.01c.12.35.45.6.83.61a1.75 1.75 0 0 1-1.3.37c.38.24.84.4 1.33.4h.01a2.47 2.47 0 0 0 2.5-2.5l-.01-.11c.17-.13.32-.28.44-.46z"/></symbol><symbol id="icon-client-1" viewBox="0 0 64 32"><path fill="#afb1b8" style="fill:var(--color4, #afb1b8)" d="m1.28 0 1.5 1.41H0v6.87h7.25V5.65l1.5 1.42V0H1.28zm5.9 5.49L2.96 1.48h4.24v4zm-1.3 1.79H1.14V2.66h.33v4.3h4.4v.32zM2.25 9.2l-.17.35-.18-.35h-.14l.26.48v.27h.13v-.27l.25-.48h-.15zm.22.75.06-.17h.3l.06.17h.14l-.29-.75h-.12l-.28.75h.13zm.21-.6.11.32h-.22l.11-.31zm.7.3a.17.17 0 0 0-.03.1c0 .06.02.11.06.15.05.04.11.06.18.06s.14-.02.2-.06l.04.05h.15l-.11-.13a.39.39 0 0 0 .06-.23h-.1a.3.3 0 0 1-.04.14l-.15-.17.06-.04a.26.26 0 0 0 .07-.08.17.17 0 0 0-.03-.2.2.2 0 0 0-.12-.06H3.6a.2.2 0 0 0-.14.06.19.19 0 0 0-.05.13c0 .03 0 .06.02.08l.06.1a.45.45 0 0 0-.11.1zm.34.17a.2.2 0 0 1-.12.04.12.12 0 0 1-.1-.03.11.11 0 0 1-.03-.08c0-.05.03-.08.07-.11l.01-.02.17.2zm-.14-.34-.05-.1c0-.03 0-.05.02-.07a.08.08 0 0 1 .05-.02c.03 0 .05 0 .07.02l.02.05a.1.1 0 0 1-.04.07l-.01.01-.06.04zm1.24.42c.05-.05.08-.11.09-.2h-.13c-.01.06-.03.1-.05.12-.03.03-.07.04-.12.04a.15.15 0 0 1-.13-.07.33.33 0 0 1-.04-.19v-.06c0-.08.01-.15.04-.19a.15.15 0 0 1 .14-.06c.05 0 .08.01.1.04s.05.06.06.11h.13a.29.29 0 0 0-.09-.19.29.29 0 0 0-.19-.07h-.01a.31.31 0 0 0-.17.05.3.3 0 0 0-.1.12.43.43 0 0 0-.04.2v.06c0 .07.01.13.03.19s.06.1.11.12c.05.03.1.04.16.04a.3.3 0 0 0 .2-.06zm.77-.11a.47.47 0 0 0 .04-.2v-.04a.45.45 0 0 0-.04-.2.3.3 0 0 0-.44-.13.3.3 0 0 0-.1.14.47.47 0 0 0-.05.2v.04c0 .07.01.13.04.19s.07.1.11.13c.05.03.1.04.17.04.06 0 .11-.01.16-.04a.3.3 0 0 0 .11-.13zm-.14-.43c.03.04.05.11.05.2v.03c0 .09-.02.15-.05.2a.15.15 0 0 1-.13.06h-.01a.16.16 0 0 1-.13-.06.33.33 0 0 1-.05-.18v-.06c0-.08.02-.14.05-.2a.16.16 0 0 1 .13-.05c.06 0 .1.02.14.06z"/></symbol><symbol id="icon-client-2" viewBox="0 0 64 32"><path fill="#afb1b8" style="fill:var(--color4, #afb1b8)" d="M3.65.63H3.1h.01C2.34.67 1.58.87.87 1.2l-.1.04v4.73L1 5.9c.7-.25 1.5-.4 2.32-.41v.62h-.23a6.9 6.9 0 0 0-2.95.84l.03-.01V.88A6.2 6.2 0 0 1 1.78.2h.05C2.3.07 2.83 0 3.39 0h.1c.38 0 .76.05 1.12.15L4.58.14v.61C4.36.7 4.1.65 3.84.64H3.8L3.65.63zm1.07.62a6.28 6.28 0 0 0 2.11-.2H6.8C7.39.9 7.9.7 8.4.42l-.03.02v5.95c-.48.28-1.03.51-1.62.66l-.04.01a6.5 6.5 0 0 1-1.57.2h-.03c-.41 0-.8-.05-1.19-.14h.04V1.14c.22.05.48.1.75.11h.01zm3.04.05-.22.07a7.16 7.16 0 0 1-2.8.4h.01l-.17-.01V6.6l.15.02a5.78 5.78 0 0 0 1.87-.18l-.04.01c.42-.1.79-.24 1.14-.41l-.04.01.1-.04V1.3zM.58 9a.32.32 0 0 0-.22-.1H.34a.4.4 0 0 0-.14.04.32.32 0 0 0-.2.3V10.05c0 .06.01.11.03.16.02.05.05.08.08.11.04.03.07.05.12.06l.12.02c.18 0 .33-.16.33-.34v-.1H.47v.08l-.01.07c0 .02-.02.03-.03.05a.15.15 0 0 1-.09.03H.33a.1.1 0 0 1-.09-.04.19.19 0 0 1-.03-.1v-.77l.03-.12a.1.1 0 0 1 .1-.05c.04 0 .08.02.1.05.02.03.03.06.03.1v.08h.21v-.08c0-.1-.03-.2-.1-.26zm1.26 0a.38.38 0 0 0-.37-.07.33.33 0 0 0-.22.34v.77c0 .06 0 .1.03.16.02.04.05.08.08.1.03.04.07.06.11.08a.36.36 0 0 0 .26 0 .33.33 0 0 0 .22-.32v-.81c0-.1-.04-.2-.11-.26zm-.1 1.04v.01c0 .04-.01.08-.04.1-.03.03-.06.04-.1.04s-.07-.01-.1-.03a.14.14 0 0 1-.04-.1v-.8c0-.04.02-.08.04-.1.03-.03.06-.04.1-.04s.07.01.1.04c.03.02.04.06.04.1v.78zm1.75.35V8.92h-.2l-.27.78-.27-.78h-.2v1.47h.2v-.9l.21.63h.11l.2-.63h.01v.9h.21zm1.2-1.37a.28.28 0 0 0-.12-.08.46.46 0 0 0-.15-.02H4.1v1.47h.21V9.8h.1c.07 0 .14 0 .2-.03a.35.35 0 0 0 .16-.24 1.04 1.04 0 0 0 0-.39.32.32 0 0 0-.08-.13zm-.11.45a.2.2 0 0 1-.02.08c-.02.02-.03.04-.06.05a.2.2 0 0 1-.09.02h-.1v-.5h.1c.04 0 .07 0 .1.02.02 0 .04.03.05.05l.02.08v.2zm1.1-.55H5.5l-.32 1.47h.21l.06-.32h.29l.06.32h.21l-.33-1.47zm-.2.95.1-.53h.01l.1.53h-.2zm1.55-.06-.32-.89h-.2v1.47h.2v-.88h.01l.32.88h.2V8.92h-.21v.88zm1.28-.9-.17.6-.18-.6h-.22l.3.86v.62h.2v-.62l.29-.85h-.22zM0 10.82h.1v.28h.07v-.29h.1v-.05H0v.05zm.85-.06-.13.34h.07L.82 11h.14l.02.08h.08l-.14-.34H.85zm-.01.2.04-.12.05.12h-.1zm.85.01h.08V11a.13.13 0 0 1-.09.03.08.08 0 0 1-.07-.03.14.14 0 0 1-.02-.08c0-.08.03-.12.1-.12.03 0 .06.02.07.05l.07-.01c-.02-.07-.06-.1-.15-.1a.17.17 0 0 0-.11.04.16.16 0 0 0-.05.14c0 .04 0 .09.04.12.03.04.07.06.12.06.06 0 .12-.02.15-.06v-.13h-.15v.05zm.85-.21h-.06v.34h.23v-.06h-.17v-.28zm.73 0H3.2v.34h.07v-.34zm.7.22-.13-.22h-.07v.34h.06v-.23l.14.23h.07v-.34h-.07v.22zm.65-.03h.17v-.06h-.17v-.08h.18v-.05h-.25v.34h.26v-.06h-.2v-.1zm1.55-.06h-.14v-.13h-.07v.34h.07v-.15h.14v.15h.06v-.34h-.06v.13zm.64.06h.17v-.06h-.17v-.08H7v-.05h-.26v.34H7v-.06h-.19v-.1zm.87 0c.06-.01.1-.04.1-.1a.08.08 0 0 0-.04-.07.19.19 0 0 0-.09-.02H7.5v.34h.07v-.15l.05.01.03.03.07.1h.08l-.04-.06a.22.22 0 0 0-.07-.08zm-.06-.05h-.06v-.08h.06a.2.2 0 0 1 .07 0l.02.04c0 .02-.01.02-.02.03l-.06.01h-.01zm.72.05h.17v-.06h-.17v-.08h.19v-.05h-.26v.34h.26v-.06h-.19v-.1z"/></symbol><symbol id="icon-client-3" viewBox="0 0 64 32"><path fill="#afb1b8" style="fill:var(--color4, #afb1b8)" d="M1.58 8.77h.01l.06.05a.41.41 0 0 1-.13.08.52.52 0 0 1-.19.03c-.06 0-.12 0-.18-.02a.36.36 0 0 1-.21-.2.41.41 0 0 1 0-.33.39.39 0 0 1 .23-.2.55.55 0 0 1 .35 0c.04.01.08.04.12.07l-.04.05-.02.01h-.02l-.02-.02-.03-.01a.32.32 0 0 0-.15-.04h-.01c-.04 0-.09 0-.13.02a.28.28 0 0 0-.16.16.33.33 0 0 0-.03.12c0 .05 0 .09.02.13.03.07.09.13.16.15l.12.03h.07c.06-.01.11-.04.16-.07l.02-.01zm1.34-.23c0 .06 0 .11-.03.16a.38.38 0 0 1-.23.2.56.56 0 0 1-.35 0 .37.37 0 0 1-.22-.2.4.4 0 0 1 .09-.44.45.45 0 0 1 .13-.08.56.56 0 0 1 .36 0l.14.08c.07.07.11.17.11.27v.01zm-.12 0c0-.04 0-.08-.02-.12a.26.26 0 0 0-.16-.15.4.4 0 0 0-.26 0 .27.27 0 0 0-.16.15.4.4 0 0 0 0 .25c.03.07.09.13.16.15.09.03.18.03.26 0a.3.3 0 0 0 .1-.05.27.27 0 0 0 .06-.1.38.38 0 0 0 .02-.13zm1.04.14.01.03.02-.03.01-.03.3-.47.01-.01h.12v.76h-.1v-.61l-.3.47-.02.02h-.07l-.02-.02-.3-.48v.62h-.1v-.77h.11l.01.02.3.47.02.03zm1.12-.04v.29h-.12v-.77h.26c.05 0 .1 0 .15.02.03 0 .07.03.1.05.02.02.05.04.06.07l.02.1c0 .07-.04.13-.09.17a.26.26 0 0 1-.1.05.5.5 0 0 1-.14.02h-.14zm0-.08h.14l.1-.01.05-.04a.15.15 0 0 0 .06-.11v-.01l-.01-.05a.16.16 0 0 0-.05-.06.26.26 0 0 0-.15-.04h-.14v.32zm1.56.37h-.09l-.03-.01-.01-.02-.08-.18h-.4l-.08.18c0 .02-.02.03-.04.03h-.1l.36-.77h.12l.35.77zm-.57-.29h.32l-.13-.3a.5.5 0 0 1-.03-.08l-.01.04-.02.03-.14.31zm1.08-.47h.01l.51.59v-.6h.1v.77h-.08l-.02-.02-.5-.58v.6h-.1v-.77H7.01zm1.48.45v.3H8.4v-.3l-.33-.46h.14l.01.03.2.3c.02.01.03.04.04.06l.01-.03.02-.04.2-.3.02-.01.02-.01h.1l-.32.46zM3.78 6.88l.16.01c.78-.3 1.42-.79 1.9-1.42v-.01c.43-.57.68-1.28.68-2.05v-.07l-.86-.74c.17.8.1 1.61-.24 2.37a4.5 4.5 0 0 1-1.62 1.9l-.02.01z"/><path fill="#afb1b8" style="fill:var(--color4, #afb1b8)" d="M3.47 6.85h.03c.79-.5 1.39-1.18 1.72-1.97a3.64 3.64 0 0 0 .16-2.5v.03L4.15 1.34a4.54 4.54 0 0 1 .58 2.86v-.02a4.84 4.84 0 0 1-1.26 2.67zm4.18-2.62c-.24.87-.75 1.6-1.44 2.1v.01c-.22.16-.45.3-.7.43.6-.15 1.15-.42 1.6-.79.44-.35.8-.79 1.03-1.3l.01-.02-.5-.43z"/><path fill="#afb1b8" style="fill:var(--color4, #afb1b8)" d="m7.46 4.1-.72-.61a3.56 3.56 0 0 1-.67 2 4.38 4.38 0 0 1-1.7 1.4l-.04.02.49-.02a4.42 4.42 0 0 0 1.72-1.1 3.6 3.6 0 0 0 .9-1.66l.01-.02zM3.58.9 2.73.15C1.97.4 1.33.85.86 1.43c-.44.54-.7 1.23-.71 1.98 0 .84.33 1.6.86 2.16A4.14 4.14 0 0 0 3.17 6.8h.02a4.64 4.64 0 0 0 1.3-2.88V3.9l.01-.26c0-1.04-.35-2-.94-2.76zm5.84 3.1c0-.92-.43-1.8-1.19-2.46A4.34 4.34 0 0 0 5.43.5h-.04c-.49 0-.98.08-1.44.23l5.2 4.52c.17-.37.27-.8.27-1.25z"/></symbol><symbol id="icon-client-4" viewBox="0 0 64 32"><path fill="#2196f3" style="fill:var(--color2, #2196f3)" d="M2.8 2.8c-.5 0-.92.36-.92.82 0 .45.41.82.92.82.52 0 .93-.37.93-.82 0-.46-.41-.83-.92-.83zm6.84-.27c0-.63-.28-1.23-.79-1.68C8.35.4 7.7.15 6.98.15h-.02c-.7 0-1.39.25-1.89.7a2.26 2.26 0 0 0-.79 1.68v3.48s5.36-.53 5.36-3.48zM0 7.16c0 .44.2.86.55 1.17.35.3.8.48 1.3.48h.01c.5 0 .97-.17 1.32-.48.33-.29.54-.7.55-1.17V4.73S0 5.1 0 7.16zm1.86.43a.5.5 0 0 1-.27-.07.45.45 0 0 1-.17-.2.4.4 0 0 1-.03-.25.41.41 0 0 1 .13-.22c.07-.06.16-.1.25-.12.1-.01.2 0 .28.03s.17.08.22.16a.4.4 0 0 1-.06.54.5.5 0 0 1-.16.1.56.56 0 0 1-.18.03zm3.42-.78v.92h-.2V6.8h.2zm.36.4v.14h-.42V7.2h.42zm.04-.4v.15h-.45v-.15h.45zm.86.44v.04c0 .07-.01.13-.03.19l-.08.14a.38.38 0 0 1-.28.12.36.36 0 0 1-.36-.26.56.56 0 0 1-.03-.18v-.05c0-.07.01-.13.03-.19a.36.36 0 0 1 .36-.26.37.37 0 0 1 .28.12l.08.14c.02.06.03.12.03.19zm-.2.04v-.17a.29.29 0 0 0-.04-.1.17.17 0 0 0-.14-.07h-.01a.17.17 0 0 0-.15.07.53.53 0 0 0-.03.1l-.02.12v.05c0 .05 0 .1.02.13 0 .04.02.07.04.1.01.02.03.04.06.05l.08.02c.03 0 .06 0 .09-.02a.16.16 0 0 0 .06-.06.26.26 0 0 0 .04-.1V7.3zm.8.2a.1.1 0 0 0 0-.05.08.08 0 0 0-.03-.03.23.23 0 0 0-.05-.04.92.92 0 0 0-.09-.03l-.12-.04a.47.47 0 0 1-.1-.06.23.23 0 0 1-.06-.08.21.21 0 0 1-.03-.1c0-.04.01-.08.03-.1.02-.04.04-.07.07-.09l.1-.05a.49.49 0 0 1 .32.02c.05.02.08.06.11.1s.05.09.05.14h-.2V7a.12.12 0 0 0-.06-.05.17.17 0 0 0-.08-.01h-.01a.2.2 0 0 0-.08.01.1.1 0 0 0-.04.04.1.1 0 0 0-.02.05l.01.05.04.03.05.03.08.03.13.05.1.07c.04.04.07.1.07.17 0 .05 0 .08-.02.11a.24.24 0 0 1-.07.08.37.37 0 0 1-.1.05.5.5 0 0 1-.4-.05h.01a.27.27 0 0 1-.12-.22h.2a.15.15 0 0 0 .04.11l.06.03a.28.28 0 0 0 .15 0 .1.1 0 0 0 .07-.1zm.73-.68v.92h-.19V6.8h.19zm.28 0v.15H7.4v-.15h.74zm.72.77v.15h-.49v-.15h.49zm-.43-.77v.92h-.18V6.8h.18zm.36.38v.14h-.42v-.15h.42zm.07-.38v.15h-.49v-.15h.49zm.1 0h.35c.06 0 .12.02.17.04.05.02.1.05.12.09.03.04.04.09.04.15a.3.3 0 0 1-.03.12.2.2 0 0 1-.06.09.3.3 0 0 1-.11.06l-.06.03h-.3v-.15h.23c.03 0 .05 0 .08-.02a.12.12 0 0 0 .05-.05.14.14 0 0 0 .01-.07l-.01-.08a.1.1 0 0 0-.05-.04.18.18 0 0 0-.08-.02h-.16v.76h-.19v-.9zm.51.92-.2-.41h.2l.2.4h-.2zm.99-.33h-.23v-.15h.23a.2.2 0 0 0 .09-.01.11.11 0 0 0 .05-.05l.01-.07a.2.2 0 0 0-.01-.08.13.13 0 0 0-.05-.06.17.17 0 0 0-.09-.02h-.17v.77h-.19v-.91h.36a.4.4 0 0 1 .18.03c.1.05.16.14.16.25v.01c0 .06-.02.11-.04.16a.24.24 0 0 1-.12.1.44.44 0 0 1-.18.03zm1.08.18v.15h-.48v-.15h.48zm-.42-.77v.92h-.2V6.8h.2zm.36.38v.14h-.42v-.15h.42zm.06-.38v.15h-.48v-.15h.48zm.53 0v.92h-.19V6.8h.19zm.28 0v.15h-.74v-.15h.74zm.72.77v.15h-.49v-.15h.49zm-.43-.77v.92h-.18V6.8h.18zm.36.38v.14h-.42v-.15h.42zm.07-.38v.15h-.49v-.15h.49zm.1 0h.34c.07 0 .13.02.18.04s.1.05.12.09c.03.04.04.09.04.15 0 .05 0 .09-.02.12a.23.23 0 0 1-.07.09.32.32 0 0 1-.1.06l-.07.03h-.3v-.15h.23c.03 0 .05 0 .08-.02a.12.12 0 0 0 .05-.05.15.15 0 0 0 0-.15.12.12 0 0 0-.05-.04.18.18 0 0 0-.08-.02h-.16v.76h-.19v-.9zm.52.92-.21-.41h.2l.2.4h-.2zm.78-.24a.1.1 0 0 0 0-.05.08.08 0 0 0-.04-.03.23.23 0 0 0-.05-.04.92.92 0 0 0-.09-.03l-.12-.04a.47.47 0 0 1-.1-.06.23.23 0 0 1-.08-.18v-.01c0-.04 0-.07.02-.1l.07-.08a.32.32 0 0 1 .1-.05.49.49 0 0 1 .31.02c.06.02.1.05.12.1s.05.09.05.14h-.19c0-.03 0-.05-.02-.07a.12.12 0 0 0-.05-.05.17.17 0 0 0-.08-.01.2.2 0 0 0-.09.01.1.1 0 0 0-.04.04.1.1 0 0 0-.02.05l.01.05.04.03.05.03.08.03.13.05.1.07c.04.04.07.1.07.17 0 .05 0 .08-.02.11a.24.24 0 0 1-.06.08.38.38 0 0 1-.1.05.5.5 0 0 1-.39-.06.27.27 0 0 1-.12-.21h.19v.06c0 .03.03.04.04.05l.06.03a.28.28 0 0 0 .16 0 .1.1 0 0 0 .06-.1z"/></symbol><symbol id="icon-client-5" viewBox="0 0 64 32"><path fill="#afb1b8" style="fill:var(--color4, #afb1b8)" d="M1.01 8.27a.3.3 0 0 1 .08.2c0 .05 0 .1-.03.15a.34.34 0 0 1-.09.12c-.1.06-.22.1-.35.1H0V7.5h.64c.11 0 .22.03.3.09l.1.11.02.14c0 .07-.02.14-.07.2a.34.34 0 0 1-.18.1c.08.02.15.06.2.12zm-.72-.2h.26c.06 0 .11-.02.16-.05a.13.13 0 0 0 .05-.06.13.13 0 0 0 0-.07V7.82a.16.16 0 0 0-.04-.06.26.26 0 0 0-.15-.04H.29v.35zm.45.5a.17.17 0 0 0 .04-.06.16.16 0 0 0 .02-.07v-.01c0-.02 0-.05-.02-.07a.17.17 0 0 0-.04-.06.28.28 0 0 0-.18-.05H.29v.37h.27c.06 0 .13-.02.17-.05zm1.51.26-.33-.51h-.13v.51H1.5V7.51H2.09c.13 0 .25.04.35.11a.4.4 0 0 1 .04.55.46.46 0 0 1-.27.13l.36.53h-.32zm-.46-.7h.24c.17 0 .25-.06.25-.2 0-.03 0-.05-.02-.08a.18.18 0 0 0-.04-.06.27.27 0 0 0-.17-.06H1.8v.4zm2.05.43h-.58l-.1.27h-.3l.53-1.3h.33l.53 1.3h-.3l-.1-.27zm-.07-.2-.22-.55-.2.56h.42zm2.06.47h-.29l-.65-.9v.9h-.28V7.51h.29l.64.9v-.9h.29v1.32zm1.64-.32a.61.61 0 0 1-.26.24.94.94 0 0 1-.4.08H6.3V7.51h.5c.15 0 .29.02.41.08.11.05.2.13.26.23a.7.7 0 0 1 0 .7zm-.33-.03c.09-.08.13-.2.13-.31s-.04-.23-.12-.32a.53.53 0 0 0-.33-.11H6.58v.85h.2c.14.01.27-.03.37-.1zM4.02.16s3.72 1.29 3.64 3.15v3.15S3.95 5.17 4.02 3.3V.16zm6.96 5.56a5.32 5.32 0 0 1 2.34-.8h.02v-.98A4.8 4.8 0 0 0 11 5.7l-.01.01z"/><path fill="#afb1b8" style="fill:var(--color4, #afb1b8)" d="M10.56 6.02a4.96 4.96 0 0 1 2.75-2.28h.03V.88s-5.3 1.84-5.18 4.49v4.48l.6-.24a4.54 4.54 0 0 1 1.78-3.6h.02z"/><path fill="#afb1b8" style="fill:var(--color4, #afb1b8)" d="M10.05 7.68c.03-.3.1-.62.19-.91a4.13 4.13 0 0 0-1.12 2.7c.3-.13.65-.3 1.02-.49-.1-.43-.13-.86-.09-1.3zm.21.02c-.03.4-.01.79.07 1.17 1.45-.79 3.07-2.01 3-3.5v-.13c-1.05.11-2 .54-2.75 1.19-.16.37-.27.8-.32 1.25v.02z"/></symbol><symbol id="icon-client-6" viewBox="0 0 64 32"><path fill="#afb1b8" style="fill:var(--color4, #afb1b8)" d="M10.12 4.57a.62.62 0 0 1-.13-.39v-.65c0-.2.04-.33.13-.43s.23-.15.44-.15c.2 0 .33.05.41.13.1.1.14.23.13.37v.14h-.35v-.15l-.01-.14a.14.14 0 0 0-.05-.08.2.2 0 0 0-.11-.04h-.03a.21.21 0 0 0-.12.04.16.16 0 0 0-.06.1l-.01.14v.75c-.01.07 0 .14.04.21a.17.17 0 0 0 .14.06h.04a.2.2 0 0 0 .1-.03.15.15 0 0 0 .06-.1V4.06h.36v.14c0 .14-.03.28-.12.39-.08.1-.22.14-.42.14-.2 0-.35-.05-.44-.15zm1.46 0c-.1-.1-.14-.23-.14-.42v-.64c0-.18.05-.32.14-.42.08-.1.23-.14.44-.14.2 0 .35.05.44.14.09.1.13.24.13.42v.64c0 .19-.04.33-.13.42-.1.1-.24.15-.44.15s-.36-.05-.44-.15zm.6-.15a.36.36 0 0 0 .04-.2v-.78a.35.35 0 0 0-.04-.2.17.17 0 0 0-.07-.04.18.18 0 0 0-.1-.01h.01-.03a.2.2 0 0 0-.07 0 .16.16 0 0 0-.07.06.39.39 0 0 0-.04.19v.8c0 .06.01.12.04.18a.25.25 0 0 0 .26.05.24.24 0 0 0 .07-.05zm.83-1.45h.38l.28 1.2.3-1.2h.36l.04 1.72h-.27l-.03-1.2-.28 1.2h-.22l-.3-1.2-.02 1.2h-.27L13 2.97zm1.78 0h.59c.34 0 .5.16.5.5 0 .3-.17.46-.53.46h-.2v.76h-.36V2.97zm.5.74.1-.01a.32.32 0 0 0 .1-.05.28.28 0 0 0 .05-.2l-.01-.15a.15.15 0 0 0-.07-.08.39.39 0 0 0-.17-.03h-.14v.52h.14zm1.12-.74h.39l.4 1.72h-.34l-.08-.4h-.35l-.08.4H16l.4-1.72zm.33 1.13-.14-.73-.13.73h.27zm.78-1.13h.25l.49.98v-.98h.3V4.7h-.24l-.49-1.02v1.02h-.31V2.97zm1.74 1.07-.4-1.07h.34l.24.68.23-.68h.34l-.4 1.07v.65h-.35v-.65zm-8.58 1.4v.1h-.3v.7h-.12v-.7h-.3v-.1h.72zm.93.8h-.1l-.03-.01-.02-.02-.08-.19h-.41l-.09.2v.01l-.03.01h-.1l.36-.79h.13l.36.79zm-.6-.3h.33l-.14-.32a.52.52 0 0 1-.03-.07l-.01.04-.01.03-.15.32zm1.22.22h.07l.11-.02.04-.02v-.18h-.16v-.08h.28v.3a.54.54 0 0 1-.25.08h-.1a.59.59 0 0 1-.19-.02.46.46 0 0 1-.14-.09.39.39 0 0 1-.1-.12.41.41 0 0 1-.03-.16v-.02c0-.1.05-.2.13-.27a.41.41 0 0 1 .14-.09.6.6 0 0 1 .3-.02.5.5 0 0 1 .16.06c.02 0 .04.02.06.04l-.03.05h-.02l-.01.01h-.02l-.04-.03a.45.45 0 0 0-.2-.04h-.01c-.05 0-.1 0-.14.02a.3.3 0 0 0-.17.16.38.38 0 0 0 0 .27.31.31 0 0 0 .32.17zm1.15-.01h.4v.09h-.52v-.8h.13v.7zm.81.09h-.12v-.8h.12v.8zm.46-.79.02.02.53.6v-.63h.1v.8h-.08l-.02-.02-.53-.6v.62h-.1v-.79h.08zm1.57 0v.08h-.44v.26h.36v.09h-.36v.27h.44v.08h-.56v-.79h.56zM3.23.57l5.5 1.35v4.72L3.24 5.3V.57zm-.35-.4v5.36L9.1 7.04V1.68L2.88.16z"/><path fill="#afb1b8" style="fill:var(--color4, #afb1b8)" d="M6.2 9.54 0 8V2.65l6.2 1.53v5.35z"/><path fill="#afb1b8" style="fill:var(--color4, #afb1b8)" d="m2.98.5 5.44 1.34-2.31 2L.67 2.5l2.31-2zm-.1-.34L0 2.66l6.2 1.51L9.1 1.68 2.88.16zm3.68 9.07 2.53-2.18-2.53-.62v2.8z"/></symbol></defs></svg>