<svg aria-hidden="true" style="position: absolute; width: 0; height: 0; overflow: hidden;" version="1.1" xmlns="http://www.w3.org/2000/svg" xmlns:xlink="http://www.w3.org/1999/xlink">
<defs>
<symbol id="icon-antenna" viewBox="0 0 32 32">
<path fill="#212121" style="fill: var(--color1, #212121)" d="M30.775 22.098l-8.443-8.503 0.937-4.617c0.242 0.091 0.498 0.142 0.759 0.146h0.005c0.006 0 0.014 0 0.022 0 1.192 0 2.158-0.966 2.158-2.158s-0.966-2.158-2.158-2.158c-1.192 0-2.158 0.966-2.158 2.158 0 0.259 0.046 0.507 0.129 0.737l-0.005-0.015-4.955 0.603-8.091-8.133c-0.097-0.098-0.231-0.159-0.379-0.16h-0c-0.137 0-0.274 0.055-0.37 0.155l-1.513 1.504c-0.21 0.21-0.21 0.549 0 0.754l0.814 0.823c-1.143 2.062-1.816 4.522-1.816 7.14 0 4.106 1.656 7.824 4.336 10.525l-0.001-0.001c0.046 0.046 0.091 0.073 0.146 0.101-0.032 0.183-0.050 0.366-0.050 0.549v6.185h-6.4c0 0 0 0 0 0-1.473 0-2.667 1.193-2.67 2.665v1.065c0 0.297 0.238 0.535 0.535 0.535h24.535c0.293 0 0.53-0.238 0.53-0.535v-1.065c-0.003-1.471-1.194-2.663-2.665-2.665h-6.4v-2.743c0.915 0.2 1.966 0.315 3.043 0.315 2.581 0 5.008-0.659 7.123-1.817l-0.077 0.039 0.818 0.823c0.096 0.101 0.233 0.16 0.375 0.16 0.137 0 0.274-0.059 0.375-0.155l1.509-1.509c0.21-0.206 0.21-0.544 0-0.75zM23.278 6.235c0.193-0.192 0.458-0.311 0.752-0.311 0.588 0 1.065 0.477 1.065 1.065s-0.476 1.064-1.063 1.065h-0c-0.001 0-0.001 0-0.002 0-0.588 0-1.065-0.477-1.065-1.065 0-0.297 0.122-0.566 0.318-0.759l0-0zM22.025 9.737l-0.599 2.944-1.175-1.179 1.774-1.765zM21.417 8.837l-1.92 1.906-1.486-1.49 3.406-0.416zM24.005 28.8c0.884 0 1.6 0.716 1.6 1.6v0 0.535h-23.465v-0.535c0-0.884 0.716-1.6 1.6-1.6v0h20.261zM16.539 26.665v1.070h-5.339v-1.070h5.335zM11.2 25.6v-4.055c0-1.294 1.198-2.345 2.665-2.345 1.472 0 2.67 1.051 2.67 2.345v4.055h-5.335zM17.6 23.904v-2.359c0-1.879-1.673-3.41-3.735-3.41-0.018-0-0.040-0-0.062-0-1.351 0-2.537 0.705-3.211 1.768l-0.009 0.016c-2.359-2.481-3.809-5.845-3.809-9.548 0-2.314 0.567-4.496 1.569-6.415l-0.036 0.077 18.606 18.711c-1.822 0.946-3.978 1.501-6.264 1.501-1.080 0-2.132-0.124-3.141-0.358l0.093 0.018zM28.891 23.218l-0.754-0.754-20.302-20.425 0.754-0.75 21.061 21.179-0.759 0.75z"></path>
<path fill="#2196f3" style="fill: var(--color2, #2196f3)" d="M13.874 20.265c-0.001 0-0.003 0-0.005 0-0.884 0-1.6 0.716-1.6 1.6 0 0.882 0.714 1.597 1.595 1.6h0.005c0.001 0 0.001 0 0.002 0 0.884 0 1.6-0.716 1.6-1.6s-0.715-1.599-1.598-1.6h-0zM14.249 22.245c-0.097 0.096-0.23 0.155-0.377 0.155-0.295 0-0.535-0.239-0.535-0.535s0.238-0.533 0.532-0.535h0c0.294 0.001 0.533 0.24 0.533 0.535 0 0.148-0.060 0.283-0.158 0.379l-0 0z"></path>
</symbol>
<symbol id="icon-astronaut" viewBox="0 0 32 32">
<path fill="#2196f3" style="fill: var(--color2, #2196f3)" d="M31.973 4.526c-0.059-0.192-0.229-0.334-0.43-0.366l-1.911-0.274-0.855-1.737c-0.178-0.361-0.777-0.361-0.955 0l-0.85 1.737-1.911 0.274c-0.262 0.038-0.46 0.261-0.46 0.53 0 0.151 0.063 0.287 0.163 0.385l0 0 1.385 1.344-0.325 1.902c-0.005 0.026-0.007 0.056-0.007 0.087 0 0.295 0.239 0.535 0.535 0.535 0.089 0 0.174-0.022 0.248-0.061l-0.003 0.001 1.71-0.896 1.705 0.896c0.072 0.039 0.158 0.062 0.25 0.062 0.295 0 0.535-0.239 0.535-0.535 0-0.032-0.003-0.063-0.008-0.093l0 0.003-0.329-1.902 1.385-1.349c0.146-0.137 0.197-0.352 0.137-0.549zM29.513 5.851c-0.128 0.123-0.183 0.297-0.155 0.471l0.192 1.115-1.001-0.526c-0.072-0.039-0.158-0.062-0.249-0.062s-0.177 0.023-0.252 0.064l0.003-0.001-1.001 0.526 0.192-1.115c0.032-0.174-0.027-0.347-0.151-0.471l-0.814-0.791 1.12-0.16c0.174-0.027 0.325-0.137 0.402-0.293l0.503-1.015 0.498 1.015c0.078 0.155 0.229 0.265 0.402 0.293l1.12 0.16-0.809 0.791zM26.135 20.526h-1.070v1.065h1.070v-1.070zM26.135 22.656h-1.070v1.065h1.070v-1.065zM27.2 21.591h-1.065v1.065h1.065v-1.065zM25.065 21.591h-1.065v1.065h1.065v-1.065zM22.4 26.391h-1.065v1.065h1.065v-1.065zM22.4 28.526h-1.065v1.065h1.065v-1.070zM23.465 27.456h-1.065v1.065h1.065v-1.065zM21.335 27.456h-1.070v1.065h1.070v-1.065zM16 24.256h-1.065v1.065h1.065v-1.065zM16 26.391h-1.065v1.065h1.065v-1.065zM17.065 25.326h-1.065v1.065h1.065v-1.070zM14.935 25.326h-1.070v1.065h1.070v-1.070zM5.865 6.126h-1.065v1.065h1.065v-1.070zM5.865 8.256h-1.065v1.065h1.065v-1.065zM6.935 7.191h-1.070v1.065h1.070v-1.065zM4.8 7.191h-1.065v1.065h1.065v-1.065z"></path>
<path fill="#212121" style="fill: var(--color1, #212121)" d="M24.713 14.158c-0.28-0.376-0.699-0.636-1.179-0.703l-0.009-0.001c-0.076-0.012-0.164-0.018-0.253-0.018-0.411 0-0.789 0.139-1.090 0.373l0.004-0.003-1.248 0.96-1.902 1.417-1.358-0.539c2.423-1.088 4.114-3.506 4.114-6.322 0-3.822-3.122-6.93-6.962-6.93s-6.958 3.109-6.958 6.93c0 1.39 0.411 2.674 1.12 3.762l-2.77-0.027-0.023 0.005c-0.055 0-0.105 0.014-0.155 0.032l-0.037 0.014-0.023 0.005-3.232 1.6-1.893 0.91c-0.506 0.32-0.837 0.877-0.837 1.511 0 0.985 0.798 1.783 1.783 1.783 0.303 0 0.588-0.075 0.838-0.209l-0.010 0.005 1.385-0.736 2.263-1.17 1.358-0.009-6.779 6.757c-0.306 0.299-0.496 0.716-0.496 1.177s0.19 0.878 0.495 1.177l0 0c0.302 0.302 0.719 0.488 1.179 0.488s0.878-0.187 1.179-0.488v0l1.307-1.312 1.742-1.298 0.901 0.896-1.76 1.755-1.339 1.33c-0.307 0.299-0.498 0.717-0.498 1.179s0.191 0.88 0.498 1.179l0 0c0.302 0.302 0.719 0.488 1.179 0.488s0.878-0.187 1.179-0.488v0l3.483-3.47 1.015-1.006h-0.005l0.018-0.018 5.166-5.659 3.474 0.498c0.019 0.003 0.041 0.004 0.063 0.004 0.071 0 0.139-0.015 0.201-0.042l-0.003 0.001 0.050-0.023c0.018-0.009 0.041-0.014 0.059-0.027l3.214-2.13 0.027-0.032 0.041-0.023 1.271-1.193c0.347-0.326 0.562-0.788 0.562-1.3 0-0.401-0.132-0.771-0.355-1.068l0.003 0.005zM2.13 17.769c-0.109 0.071-0.243 0.113-0.386 0.113-0.396 0-0.716-0.321-0.716-0.716 0-0.252 0.13-0.474 0.327-0.602l0.003-0.002 1.317-0.631 0.315 0.923 0.133 0.389-0.992 0.526zM5.627 15.941l-1.55 0.8-0.256-0.741-0.183-0.535 2.030-1.006-0.041 1.486zM20.727 9.326c0 0.919-0.219 1.783-0.599 2.56l-4.183-1.897c-0.042-0.576-0.341-1.074-0.78-1.386l-0.006-0.004 1.463-4.859c2.377 0.754 4.105 2.971 4.105 5.586zM8.937 9.326c0.011-3.243 2.643-5.868 5.888-5.868 0.266 0 0.528 0.018 0.784 0.052l-0.030-0.003-1.435 4.754-0.055-0.005c0 0 0 0-0 0-1.032 0-1.869 0.834-1.874 1.865v0.001c0.012 1.026 0.847 1.852 1.874 1.852 0.687 0 1.287-0.369 1.614-0.92l0.005-0.009 3.858 1.755c-1.085 1.458-2.804 2.393-4.741 2.393-3.245 0-5.878-2.624-5.893-5.866v-0.001zM14.894 10.126c0 0.446-0.361 0.807-0.807 0.807s-0.807-0.361-0.807-0.807v0c0-0.439 0.366-0.8 0.809-0.8s0.805 0.361 0.805 0.8zM2.469 25.147c-0.233 0.233-0.617 0.229-0.855 0-0.109-0.108-0.177-0.257-0.177-0.423s0.068-0.315 0.177-0.423l0.96-0.96 0.855 0.85-0.965 0.951zM5.682 28.878c-0.233 0.238-0.617 0.238-0.855 0-0.108-0.108-0.174-0.256-0.174-0.421s0.067-0.313 0.174-0.421v0l0.96-0.96 0.855 0.846-0.96 0.96zM9.166 25.413l-1.769 1.76-0.85-0.85 1.765-1.751c0.041-0.046 0.064-0.091 0.091-0.137l0.023-0.046c0.018-0.037 0.023-0.082 0.027-0.123 0-0.027 0.014-0.046 0.014-0.073 0-0.037-0.014-0.073-0.018-0.105l-0.018-0.096c-0.023-0.050-0.055-0.091-0.091-0.137l-0.027-0.041-1.609-1.6c-0.014-0.018-0.037-0.023-0.055-0.037-0.032-0.023-0.059-0.046-0.091-0.059-0.026-0.012-0.056-0.023-0.088-0.031l-0.003-0.001c-0.029-0.010-0.063-0.018-0.098-0.023l-0.003-0c-0.032 0-0.064 0-0.096 0.009-0.037 0-0.069 0.009-0.105 0.018-0.032 0.009-0.064 0.027-0.091 0.046-0.023 0.009-0.046 0.014-0.064 0.027l-1.774 1.326-0.901-0.901 2.4-2.386 4.361 4.293-0.928 0.914zM15.982 18.395h-0.046c-0.007-0-0.016-0.001-0.025-0.001-0.137 0-0.262 0.052-0.355 0.138l0-0-0.041 0.032-4.699 5.143-4.325-4.251 2.834-2.821c0.098-0.097 0.158-0.231 0.158-0.379 0-0.295-0.239-0.535-0.535-0.535-0.002 0-0.005 0-0.007 0h0l-2.217 0.014 0.027-1.609 3.104 0.027c1.263 1.296 3.026 2.099 4.977 2.099 0.455 0 0.899-0.044 1.33-0.127l-0.044 0.007c0.037 0.032 0.078 0.064 0.128 0.087l2.409 0.96 0.151 0.759 0.183 0.882-3.008-0.425zM20.023 18.574l-0.311-1.559 1.445-1.079 0.379 0.503 0.567 0.75-2.080 1.385zM23.781 15.739l-0.841 0.786-0.928-1.234 0.827-0.64c0.122-0.093 0.276-0.149 0.443-0.149 0.037 0 0.074 0.003 0.11 0.008l-0.004-0.001c0.352 0.050 0.62 0.349 0.62 0.711 0 0.206-0.087 0.392-0.226 0.523l-0 0z"></path>
<path fill="#212121" style="fill: var(--color1, #212121)" d="M13.6 18.546l-2.139-2.135c-0.097-0.096-0.23-0.156-0.377-0.156s-0.28 0.059-0.377 0.156l0-0-2.144 2.135c-0.096 0.097-0.156 0.23-0.156 0.377s0.059 0.28 0.156 0.377l-0-0 2.144 2.135c0.097 0.096 0.23 0.156 0.377 0.156s0.28-0.059 0.377-0.156l-0 0 2.139-2.135c0.096-0.097 0.156-0.23 0.156-0.377s-0.059-0.28-0.156-0.377l0 0zM11.086 20.302l-1.394-1.376 1.385-1.381 1.39 1.381-1.39 1.381zM17.166 5.074l-0.261 1.033c0.073 0.018 1.737 0.453 1.737 2.149h1.070c0-2.016-1.669-2.967-2.546-3.186zM19.712 9.326h-1.070v1.065h1.070v-1.070z"></path>
</symbol>
<symbol id="icon-clock" viewBox="0 0 32 32">
<path fill="#212121" style="fill: var(--color1, #212121)" d="M31.296 15.301c-0.001-8.452-6.853-15.303-15.305-15.303s-15.305 6.852-15.305 15.305c0 6.79 4.422 12.548 10.543 14.55l0.108 0.031c0.057 0.017 0.123 0.027 0.191 0.027 0.125 0 0.242-0.034 0.343-0.093l-0.003 0.002c0.137-0.082 0.233-0.206 0.283-0.357l3.863-12.251c1.048-0.009 1.895-0.861 1.895-1.911 0-1.055-0.856-1.911-1.911-1.911-0.3 0-0.584 0.069-0.836 0.192l0.011-0.005-5.102-5.106c-0.112-0.098-0.259-0.158-0.421-0.158-0.353 0-0.64 0.287-0.64 0.64 0 0.16 0.059 0.307 0.156 0.419l-0.001-0.001 5.106 5.111c-0.121 0.241-0.192 0.526-0.192 0.826 0 0.601 0.283 1.136 0.723 1.479l0.004 0.003-3.685 11.671c-5.408-2.035-9.186-7.165-9.186-13.177 0-7.756 6.287-14.043 14.043-14.043s14.043 6.287 14.043 14.043c0 5.688-3.381 10.586-8.243 12.793l-0.088 0.036-0.398-1.874c-0.066-0.289-0.32-0.502-0.625-0.502-0.162 0-0.31 0.060-0.423 0.159l0.001-0.001-3.84 3.429c-0.127 0.117-0.207 0.285-0.207 0.471 0 0.282 0.182 0.521 0.435 0.607l0.005 0.001 4.901 1.563c0.057 0.019 0.123 0.029 0.192 0.029 0.353 0 0.64-0.287 0.64-0.64 0-0.046-0.005-0.091-0.014-0.134l0.001 0.004-0.393-1.838c5.529-2.374 9.33-7.772 9.33-14.057 0-0.011 0-0.022-0-0.034v0.002zM15.991 14.661c0.353 0 0.64 0.287 0.64 0.64s-0.287 0.64-0.64 0.64v0c-0.353 0-0.64-0.287-0.64-0.64s0.287-0.64 0.64-0.64v0zM18.094 29.527l2.185-1.947 0.599 2.839-2.789-0.891z"></path>
<path fill="#2196f3" style="fill: var(--color2, #2196f3)" d="M15.355 3.186v1.275c-0.001 0.016-0.002 0.035-0.002 0.054 0 0.353 0.287 0.64 0.64 0.64s0.64-0.287 0.64-0.64c0-0.019-0.001-0.038-0.002-0.056l0 0.002v-1.28c0-0.353-0.287-0.64-0.64-0.64s-0.64 0.287-0.64 0.64v0zM3.877 14.665c-0.329 0.029-0.586 0.303-0.586 0.638s0.257 0.609 0.584 0.638l0.002 0h1.275c0.353 0 0.64-0.287 0.64-0.64s-0.287-0.64-0.64-0.64h-1.28zM28.11 15.941c0.353 0 0.64-0.287 0.64-0.64s-0.287-0.64-0.64-0.64h-1.28c-0.353 0-0.64 0.287-0.64 0.64s0.287 0.64 0.64 0.64h1.28z"></path>
</symbol>
<symbol id="icon-diagram" viewBox="0 0 32 32">
<path fill="#2196f3" style="fill: var(--color2, #2196f3)" d="M14.926 14.967h1.065v4.795h-1.065v-4.8zM19.191 17.097h1.065v2.665h-1.065v-2.665zM10.661 18.697h1.065v1.065h-1.065v-1.065zM7.461 18.162h1.070v1.6h-1.070v-1.6z"></path>
<path fill="#212121" style="fill: var(--color1, #212121)" d="M1.6 28.293h25.586c0.884 0 1.6-0.716 1.6-1.6v0-2.135c0-0.884-0.716-1.6-1.6-1.6v0h-0.535v-13.285l3.031-2.871c0.207 0.104 0.45 0.164 0.708 0.164 0.889 0 1.609-0.72 1.609-1.609s-0.72-1.609-1.609-1.609c-0.889 0-1.609 0.72-1.609 1.609 0 0.247 0.056 0.482 0.156 0.691l-0.004-0.010-2.281 2.162v-1.23c0-0.884-0.716-1.6-1.6-1.6v0h-21.321c-0.884 0-1.6 0.716-1.6 1.6v0 15.995h-0.53c-0.884 0-1.6 0.716-1.6 1.6v0 2.13c0 0.884 0.716 1.6 1.6 1.6v0zM30.386 4.837c0.015-0.001 0.032-0.002 0.049-0.002 0.295 0 0.535 0.239 0.535 0.535s-0.239 0.535-0.535 0.535c-0.017 0-0.035-0.001-0.052-0.002l0.002 0c-0.273-0.026-0.485-0.255-0.485-0.533s0.212-0.506 0.483-0.532l0.002-0zM3.2 6.967c0-0.293 0.238-0.53 0.53-0.53h21.321c0.297 0 0.535 0.238 0.535 0.53v2.24l-1.065 1.015v-2.185c0-0.297-0.238-0.535-0.535-0.535h-19.186c-0.293 0-0.53 0.238-0.53 0.535v13.326c0 0.293 0.238 0.53 0.53 0.53h19.191c0.297 0 0.535-0.238 0.535-0.53v-9.673l1.065-1.010v12.283h-22.391v-15.995zM8 13.897c-0.004-0-0.009-0-0.013-0-0.884 0-1.6 0.716-1.6 1.6s0.716 1.6 1.6 1.6c0.434 0 0.827-0.173 1.115-0.453l-0 0 1.856 0.933c0.215 0.105 0.475 0.055 0.635-0.123l3.936-4.434 3.872 2.903c0.21 0.155 0.503 0.137 0.686-0.037l3.369-3.191v8.137h-18.126v-12.27h18.126v2.661l-3.771 3.57-3.904-2.926c-0.088-0.067-0.2-0.107-0.322-0.107-0.159 0-0.302 0.070-0.4 0.18l-0 0.001-3.991 4.494-1.495-0.75c0.014-0.064 0.018-0.128 0.023-0.192 0-0.884-0.716-1.6-1.6-1.6v0zM8.53 15.497c0 0.295-0.239 0.535-0.535 0.535s-0.535-0.239-0.535-0.535v0c0-0.295 0.239-0.535 0.535-0.535s0.535 0.239 0.535 0.535v0zM11.73 24.027h5.321v0.53c0 0.297-0.238 0.535-0.53 0.535h-4.265c-0.293 0-0.535-0.238-0.535-0.535v-0.53zM1.061 24.558c0-0.293 0.238-0.53 0.535-0.53h9.061v0.53c0 0.884 0.716 1.6 1.6 1.6v0h4.265c0.884 0 1.6-0.716 1.6-1.6v0-0.53h9.061c0.293 0 0.53 0.238 0.53 0.53v2.135c0 0.293-0.238 0.53-0.53 0.53h-25.582c-0.297 0-0.535-0.238-0.535-0.53v-2.135z"></path>
</symbol>
<symbol id="icon-mail" viewBox="0 0 64 32">
<path fill="#757575" style="fill: var(--color3, #757575)" d="M3.093 0h-2.773c-0.177 0-0.32 0.143-0.32 0.32v1.92c0 0.177 0.143 0.32 0.32 0.32h2.773c0.177 0 0.32-0.143 0.32-0.32v-1.92c0-0.177-0.143-0.32-0.32-0.32zM3.093 0.213c0 0 0.001 0 0.001 0 0.015 0 0.029 0.003 0.042 0.009l-0.001-0-1.429 1.237-1.429-1.237c0.012-0.005 0.027-0.009 0.042-0.009 0 0 0.001 0 0.001 0h2.773zM3.093 2.347h-2.773c-0.059 0-0.107-0.048-0.107-0.107v0-1.792l1.423 1.233c0.019 0.016 0.043 0.027 0.070 0.027s0.052-0.010 0.071-0.027l-0 0 1.423-1.233v1.792c0 0.059-0.048 0.107-0.107 0.107v0z"></path>
</symbol>
<symbol id="icon-smartphone" viewBox="0 0 64 32">
<path fill="#757575" style="fill: var(--color3, #757575)" d="M1.813 0h-1.493c-0.177 0-0.32 0.143-0.32 0.32v2.773c0 0.177 0.143 0.32 0.32 0.32h1.493c0.177 0 0.32-0.143 0.32-0.32v-2.773c0-0.177-0.143-0.32-0.32-0.32zM0.32 0.213h1.493c0.060 0 0.107 0.047 0.107 0.107v2.24h-1.707v-2.24c0-0.060 0.047-0.107 0.107-0.107zM1.813 3.2h-1.493c-0.059 0-0.107-0.048-0.107-0.107v0-0.32h1.707v0.32c0 0.059-0.048 0.107-0.107 0.107v0z"></path>
<path fill="#757575" style="fill: var(--color3, #757575)" d="M0.501 2.931c0.043 0.038 0.043 0.102 0 0.141-0.020 0.018-0.046 0.028-0.075 0.028s-0.055-0.011-0.075-0.028l0 0c-0.019-0.018-0.031-0.043-0.031-0.070s0.012-0.053 0.031-0.070l0-0c0.043-0.038 0.107-0.038 0.149 0z"></path>
</symbol>
<symbol id="icon-fb" viewBox="0 0 64 32">
<path fill="#afb1b8" style="fill: var(--color4, #afb1b8)" d="M2.844 0.708h0.39v-0.678c-0.068-0.009-0.299-0.030-0.567-0.030-0.563 0-0.947 0.354-0.947 1.003v0.597h-0.619v0.757h0.619v1.909h0.759v-1.907h0.595l0.094-0.759h-0.689v-0.523c0-0.22 0.060-0.369 0.365-0.369z"></path>
</symbol>
<symbol id="icon-fb-footer" viewBox="0 0 64 32">
<path fill="#fff" style="fill: var(--color5, #fff)" d="M2.844 0.708h0.39v-0.678c-0.068-0.009-0.299-0.030-0.567-0.030-0.563 0-0.947 0.354-0.947 1.003v0.597h-0.619v0.757h0.619v1.909h0.759v-1.907h0.595l0.094-0.759h-0.689v-0.523c0-0.22 0.060-0.369 0.365-0.369z"></path>
</symbol>
<symbol id="icon-insta" viewBox="0 0 64 32">
<path fill="#afb1b8" style="fill: var(--color4, #afb1b8)" d="M4.262 1.254c-0.003-0.187-0.039-0.365-0.102-0.529l0.004 0.011c-0.057-0.148-0.141-0.274-0.247-0.377l-0-0c-0.107-0.107-0.235-0.192-0.378-0.245-0.154-0.060-0.331-0.096-0.517-0.1l-0.002-0c-0.194-0.009-0.422-0.015-0.651-0.015-0.080 0-0.16 0.001-0.24 0.002l0.012-0c-0.58 0-0.653 0.002-0.879 0.013-0.228 0.009-0.384 0.047-0.518 0.098-0.143 0.055-0.271 0.139-0.378 0.247-0.109 0.107-0.192 0.235-0.247 0.378-0.059 0.154-0.095 0.331-0.098 0.517l-0 0.001c-0.009 0.194-0.015 0.422-0.015 0.651 0 0.080 0.001 0.16 0.002 0.24l-0-0.012c0 0.58 0 0.653 0.011 0.879 0.004 0.187 0.040 0.365 0.104 0.529l-0.004-0.011c0.053 0.143 0.139 0.271 0.247 0.378 0.107 0.109 0.235 0.192 0.378 0.247 0.134 0.051 0.29 0.087 0.516 0.098 0.228 0.011 0.299 0.013 0.879 0.013s0.653-0.002 0.881-0.013c0.186-0.003 0.363-0.039 0.527-0.102l-0.011 0.004c0.288-0.113 0.512-0.337 0.622-0.618l0.003-0.007c0.051-0.137 0.090-0.29 0.098-0.518 0.011-0.226 0.013-0.299 0.013-0.879 0-0.578 0-0.651-0.011-0.879zM3.878 2.997c-0.009 0.207-0.043 0.32-0.073 0.395-0.074 0.187-0.219 0.332-0.401 0.404l-0.005 0.002c-0.075 0.030-0.19 0.064-0.397 0.073-0.224 0.011-0.292 0.013-0.862 0.013-0.062 0.001-0.135 0.001-0.208 0.001-0.23 0-0.458-0.005-0.686-0.015l0.032 0.001c-0.209-0.009-0.32-0.043-0.395-0.073-0.096-0.036-0.178-0.091-0.245-0.16l-0-0c-0.069-0.067-0.123-0.148-0.158-0.239l-0.002-0.005c-0.045-0.118-0.071-0.254-0.073-0.396v-0.001c-0.009-0.195-0.014-0.424-0.014-0.654 0-0.073 0.001-0.146 0.002-0.219l-0 0.011c0-0.57 0.002-0.638 0.013-0.862 0.009-0.209 0.043-0.32 0.073-0.397 0.034-0.092 0.087-0.175 0.16-0.243 0.067-0.069 0.149-0.124 0.241-0.158l0.005-0.002c0.075-0.030 0.188-0.064 0.397-0.073 0.224-0.011 0.292-0.013 0.86-0.013 0.572 0 0.64 0 0.862 0.013 0.209 0.009 0.32 0.043 0.397 0.073 0.092 0.034 0.177 0.087 0.245 0.16 0.070 0.068 0.126 0.151 0.16 0.243 0.028 0.077 0.064 0.19 0.073 0.397 0.011 0.224 0.013 0.292 0.013 0.862s-0.002 0.636-0.013 0.862z"></path>
<path fill="#afb1b8" style="fill: var(--color4, #afb1b8)" d="M2.142 1.037c-0.606 0-1.097 0.491-1.097 1.097s0.491 1.097 1.097 1.097v0c0.606 0 1.097-0.491 1.097-1.097s-0.491-1.097-1.097-1.097v0zM2.142 2.844c-0.392 0-0.71-0.318-0.71-0.71s0.318-0.71 0.71-0.71v0c0.392 0 0.71 0.318 0.71 0.71s-0.318 0.71-0.71 0.71v0zM3.537 0.994c0 0.141-0.115 0.256-0.256 0.256s-0.256-0.115-0.256-0.256v0c0-0.141 0.115-0.256 0.256-0.256s0.256 0.115 0.256 0.256v0z"></path>
</symbol>
<symbol id="icon-insta-footer" viewBox="0 0 64 32">
<path fill="#fff" style="fill: var(--color5, #fff)" d="M4.262 1.254c-0.003-0.187-0.039-0.365-0.102-0.529l0.004 0.011c-0.057-0.148-0.141-0.274-0.247-0.377l-0-0c-0.107-0.107-0.235-0.192-0.378-0.245-0.154-0.060-0.331-0.096-0.517-0.1l-0.002-0c-0.194-0.009-0.422-0.015-0.651-0.015-0.080 0-0.16 0.001-0.24 0.002l0.012-0c-0.58 0-0.653 0.002-0.879 0.013-0.228 0.009-0.384 0.047-0.518 0.098-0.143 0.055-0.271 0.139-0.378 0.247-0.109 0.107-0.192 0.235-0.247 0.378-0.059 0.154-0.095 0.331-0.098 0.517l-0 0.001c-0.009 0.194-0.015 0.422-0.015 0.651 0 0.080 0.001 0.16 0.002 0.24l-0-0.012c0 0.58 0 0.653 0.011 0.879 0.004 0.187 0.040 0.365 0.104 0.529l-0.004-0.011c0.053 0.143 0.139 0.271 0.247 0.378 0.107 0.109 0.235 0.192 0.378 0.247 0.134 0.051 0.29 0.087 0.516 0.098 0.228 0.011 0.299 0.013 0.879 0.013s0.653-0.002 0.881-0.013c0.186-0.003 0.363-0.039 0.527-0.102l-0.011 0.004c0.288-0.113 0.512-0.337 0.622-0.618l0.003-0.007c0.051-0.137 0.090-0.29 0.098-0.518 0.011-0.226 0.013-0.299 0.013-0.879 0-0.578 0-0.651-0.011-0.879zM3.878 2.997c-0.009 0.207-0.043 0.32-0.073 0.395-0.074 0.187-0.219 0.332-0.401 0.404l-0.005 0.002c-0.075 0.030-0.19 0.064-0.397 0.073-0.224 0.011-0.292 0.013-0.862 0.013-0.062 0.001-0.135 0.001-0.208 0.001-0.23 0-0.458-0.005-0.686-0.015l0.032 0.001c-0.209-0.009-0.32-0.043-0.395-0.073-0.096-0.036-0.178-0.091-0.245-0.16l-0-0c-0.069-0.067-0.123-0.148-0.158-0.239l-0.002-0.005c-0.045-0.118-0.071-0.254-0.073-0.396v-0.001c-0.009-0.195-0.014-0.424-0.014-0.654 0-0.073 0.001-0.146 0.002-0.219l-0 0.011c0-0.57 0.002-0.638 0.013-0.862 0.009-0.209 0.043-0.32 0.073-0.397 0.034-0.092 0.087-0.175 0.16-0.243 0.067-0.069 0.149-0.124 0.241-0.158l0.005-0.002c0.075-0.030 0.188-0.064 0.397-0.073 0.224-0.011 0.292-0.013 0.86-0.013 0.572 0 0.64 0 0.862 0.013 0.209 0.009 0.32 0.043 0.397 0.073 0.092 0.034 0.177 0.087 0.245 0.16 0.070 0.068 0.126 0.151 0.16 0.243 0.028 0.077 0.064 0.19 0.073 0.397 0.011 0.224 0.013 0.292 0.013 0.862s-0.002 0.636-0.013 0.862z"></path>
<path fill="#fff" style="fill: var(--color5, #fff)" d="M2.142 1.037c-0.606 0-1.097 0.491-1.097 1.097s0.491 1.097 1.097 1.097v0c0.606 0 1.097-0.491 1.097-1.097s-0.491-1.097-1.097-1.097v0zM2.142 2.844c-0.392 0-0.71-0.318-0.71-0.71s0.318-0.71 0.71-0.71v0c0.392 0 0.71 0.318 0.71 0.71s-0.318 0.71-0.71 0.71v0zM3.537 0.994c0 0.141-0.115 0.256-0.256 0.256s-0.256-0.115-0.256-0.256v0c0-0.141 0.115-0.256 0.256-0.256s0.256 0.115 0.256 0.256v0z"></path>
</symbol>
<symbol id="icon-linkedin" viewBox="0 0 64 32">
<path fill="#afb1b8" style="fill: var(--color4, #afb1b8)" d="M4.267 4.267v-1.566c0-0.764-0.164-1.355-1.060-1.355-0.010-0-0.022-0.001-0.034-0.001-0.341 0-0.638 0.184-0.8 0.457l-0.002 0.004h-0.013v-0.388h-0.849v2.848h0.885v-1.41c0-0.371 0.070-0.732 0.529-0.732 0.454 0 0.461 0.425 0.461 0.755v1.387h0.883zM0.070 1.419h0.885v2.848h-0.885v-2.848zM0.512 0c-0.283 0-0.512 0.229-0.512 0.512v0c0 0.001 0 0.001 0 0.002 0 0.284 0.229 0.514 0.512 0.516h0c0.284 0 0.512-0.235 0.512-0.518s-0.229-0.512-0.512-0.512v0z"></path>
</symbol>
<symbol id="icon-linkedin-footer" viewBox="0 0 64 32">
<path fill="#fff" style="fill: var(--color5, #fff)" d="M4.267 4.267v-1.566c0-0.764-0.164-1.355-1.060-1.355-0.010-0-0.022-0.001-0.034-0.001-0.341 0-0.638 0.184-0.8 0.457l-0.002 0.004h-0.013v-0.388h-0.849v2.848h0.885v-1.41c0-0.371 0.070-0.732 0.529-0.732 0.454 0 0.461 0.425 0.461 0.755v1.387h0.883zM0.070 1.419h0.885v2.848h-0.885v-2.848zM0.512 0c-0.283 0-0.512 0.229-0.512 0.512v0c0 0.001 0 0.001 0 0.002 0 0.284 0.229 0.514 0.512 0.516h0c0.284 0 0.512-0.235 0.512-0.518s-0.229-0.512-0.512-0.512v0z"></path>
</symbol>
<symbol id="icon-twitter" viewBox="0 0 64 32">
<path fill="#afb1b8" style="fill: var(--color4, #afb1b8)" d="M4.267 0.811c-0.158 0.070-0.329 0.115-0.503 0.139 0.181-0.109 0.32-0.277 0.384-0.484-0.171 0.1-0.356 0.171-0.555 0.213-0.16-0.173-0.389-0.281-0.642-0.281-0.483 0-0.875 0.392-0.875 0.875 0 0.072 0.009 0.141 0.025 0.208l-0.001-0.006c-0.728-0.037-1.369-0.384-1.797-0.911l-0.004-0.005c-0.074 0.126-0.118 0.279-0.118 0.441 0 0.301 0.151 0.567 0.382 0.726l0.003 0.002c-0.139 0-0.277-0.043-0.395-0.107v0.009c0 0.427 0.303 0.779 0.702 0.86-0.069 0.020-0.148 0.031-0.23 0.031-0.059 0-0.116-0.006-0.172-0.017l0.006 0.001c0.117 0.35 0.438 0.599 0.818 0.608l0.001 0c-0.296 0.235-0.675 0.377-1.088 0.377-0.073 0-0.145-0.004-0.216-0.013l0.008 0.001c0.377 0.246 0.838 0.393 1.334 0.393 0.003 0 0.006 0 0.009 0h-0c1.611 0 2.49-1.333 2.49-2.49 0-0.038 0-0.077-0.004-0.113 0.175-0.124 0.32-0.277 0.439-0.454z"></path>
</symbol>
<symbol id="icon-twitter-footer" viewBox="0 0 64 32">
<path fill="#fff" style="fill: var(--color5, #fff)" d="M4.267 0.811c-0.158 0.070-0.329 0.115-0.503 0.139 0.181-0.109 0.32-0.277 0.384-0.484-0.171 0.1-0.356 0.171-0.555 0.213-0.16-0.173-0.389-0.281-0.642-0.281-0.483 0-0.875 0.392-0.875 0.875 0 0.072 0.009 0.141 0.025 0.208l-0.001-0.006c-0.728-0.037-1.369-0.384-1.797-0.911l-0.004-0.005c-0.074 0.126-0.118 0.279-0.118 0.441 0 0.301 0.151 0.567 0.382 0.726l0.003 0.002c-0.139 0-0.277-0.043-0.395-0.107v0.009c0 0.427 0.303 0.779 0.702 0.86-0.069 0.020-0.148 0.031-0.23 0.031-0.059 0-0.116-0.006-0.172-0.017l0.006 0.001c0.117 0.35 0.438 0.599 0.818 0.608l0.001 0c-0.296 0.235-0.675 0.377-1.088 0.377-0.073 0-0.145-0.004-0.216-0.013l0.008 0.001c0.377 0.246 0.838 0.393 1.334 0.393 0.003 0 0.006 0 0.009 0h-0c1.611 0 2.49-1.333 2.49-2.49 0-0.038 0-0.077-0.004-0.113 0.175-0.124 0.32-0.277 0.439-0.454z"></path>
</symbol>
<symbol id="icon-client-1" viewBox="0 0 64 32">
<path fill="#afb1b8" style="fill: var(--color4, #afb1b8)" d="M1.28 0l1.493 1.414h-2.773v6.863h7.253v-2.624l1.493 1.412v-7.066h-7.467zM7.189 5.489l-4.243-4.013h4.243v4.011zM5.871 7.277h-4.723v-4.619h0.335v4.305h4.388v0.314zM2.263 9.195l-0.175 0.358-0.175-0.358h-0.143l0.256 0.48v0.277h0.13v-0.277l0.256-0.48h-0.149zM2.483 9.952l0.060-0.175h0.294l0.064 0.175h0.137l-0.288-0.757h-0.117l-0.288 0.757h0.139zM2.69 9.355l0.111 0.316h-0.22l0.109-0.316zM3.386 9.653c-0.017 0.026-0.028 0.059-0.028 0.093 0 0 0 0 0 0.001v-0c0 0.064 0.021 0.117 0.066 0.156 0.045 0.041 0.107 0.060 0.181 0.060s0.139-0.021 0.192-0.060l0.043 0.049h0.149l-0.113-0.13c0.043-0.060 0.064-0.137 0.064-0.23h-0.107c0 0.051-0.013 0.098-0.034 0.139l-0.145-0.171 0.051-0.041c0.036-0.026 0.064-0.051 0.079-0.079 0.015-0.024 0.023-0.054 0.023-0.085 0-0.048-0.020-0.091-0.053-0.122l-0-0c-0.034-0.030-0.079-0.049-0.128-0.049-0.002 0-0.004 0-0.006 0h0c-0.004-0-0.008-0-0.012-0-0.052 0-0.099 0.020-0.135 0.052l0-0c-0.033 0.034-0.054 0.080-0.054 0.13 0 0.004 0 0.007 0 0.011l-0-0.001c0 0.026 0.006 0.051 0.017 0.077s0.032 0.058 0.062 0.094c-0.044 0.029-0.082 0.065-0.112 0.105l-0.001 0.001zM3.727 9.82c-0.032 0.026-0.074 0.042-0.119 0.043h-0c-0.002 0-0.004 0-0.006 0-0.032 0-0.061-0.012-0.083-0.032l0 0c-0.021-0.021-0.034-0.049-0.034-0.081 0-0.002 0-0.003 0-0.005v0c0-0.043 0.021-0.077 0.064-0.109l0.015-0.013 0.164 0.196zM3.593 9.483c-0.036-0.043-0.053-0.079-0.053-0.109 0-0.026 0.006-0.047 0.021-0.064 0.014-0.014 0.033-0.024 0.054-0.024 0.001 0 0.002 0 0.003 0h-0c0.023 0 0.043 0.006 0.058 0.021 0.015 0.013 0.021 0.030 0.021 0.049 0 0.030-0.011 0.055-0.032 0.075l-0.015 0.013-0.058 0.038zM4.826 9.897c0.053-0.047 0.083-0.109 0.090-0.192h-0.13c-0.006 0.055-0.023 0.094-0.049 0.117-0.028 0.023-0.064 0.034-0.117 0.034-0.002 0-0.004 0-0.006 0-0.050 0-0.095-0.025-0.121-0.064l-0-0.001c-0.030-0.043-0.045-0.107-0.045-0.188v-0.066c0-0.081 0.015-0.143 0.047-0.183 0.030-0.043 0.075-0.064 0.132-0.064 0.049 0 0.085 0.013 0.111 0.036s0.043 0.064 0.049 0.117h0.13c-0.004-0.076-0.037-0.143-0.087-0.192l-0-0c-0.050-0.043-0.116-0.069-0.188-0.069-0.005 0-0.010 0-0.015 0l0.001-0c-0.064 0-0.117 0.015-0.164 0.043-0.047 0.032-0.085 0.073-0.109 0.128-0.026 0.053-0.038 0.117-0.038 0.188v0.073c0 0.068 0.013 0.13 0.038 0.183s0.060 0.094 0.107 0.122c0.047 0.030 0.1 0.043 0.16 0.043 0.085 0 0.156-0.021 0.207-0.066zM5.6 9.79c0.026-0.058 0.038-0.122 0.038-0.196v-0.043c0-0.075-0.013-0.139-0.038-0.192-0.046-0.104-0.148-0.175-0.266-0.175-0.004 0-0.008 0-0.011 0l0.001-0c-0.060 0-0.115 0.015-0.162 0.045-0.049 0.030-0.085 0.075-0.111 0.13-0.026 0.058-0.041 0.122-0.041 0.196v0.043c0 0.073 0.015 0.137 0.041 0.192s0.064 0.098 0.111 0.128c0.049 0.030 0.105 0.045 0.164 0.045 0.064 0 0.117-0.015 0.166-0.043 0.047-0.032 0.085-0.075 0.109-0.13zM5.459 9.361c0.032 0.043 0.049 0.109 0.049 0.192v0.041c0 0.085-0.017 0.149-0.049 0.194-0.028 0.040-0.074 0.066-0.126 0.066-0.003 0-0.006-0-0.008-0l0 0c-0.002 0-0.004 0-0.006 0-0.053 0-0.1-0.026-0.128-0.066l-0-0c-0.031-0.050-0.050-0.11-0.050-0.174 0-0.007 0-0.014 0.001-0.021l-0 0.001v-0.043c0-0.083 0.017-0.145 0.049-0.192 0.029-0.039 0.074-0.064 0.126-0.064 0.003 0 0.006 0 0.009 0l-0-0c0.058 0 0.102 0.021 0.134 0.064z"></path>
</symbol>
<symbol id="icon-client-2" viewBox="0 0 64 32">
<path fill="#afb1b8" style="fill: var(--color4, #afb1b8)" d="M3.65 0.625h-0.028l-0.134-0.004h-0.098c-0.006-0-0.014-0-0.021-0-0.090 0-0.18 0.002-0.269 0.007l0.012-0c-0.777 0.043-1.536 0.239-2.242 0.572l-0.092 0.045v4.723l0.215-0.073c0.692-0.249 1.489-0.397 2.321-0.407l0.005-0v0.621l-0.226 0.006h-0.017c-1.076 0.060-2.070 0.357-2.948 0.839l0.036-0.018v-6.061c0.478-0.283 1.032-0.514 1.618-0.663l0.044-0.009c0.469-0.126 1.007-0.2 1.562-0.203h0.093c0.389 0.001 0.766 0.052 1.126 0.146l-0.031-0.007v0.612c-0.217-0.054-0.475-0.095-0.739-0.114l-0.016-0.001h-0.015c-0.053-0.004-0.107-0.011-0.156-0.011zM4.725 1.25c0.121 0.008 0.261 0.012 0.403 0.012 0.59 0 1.162-0.076 1.706-0.219l-0.047 0.010c0.601-0.153 1.128-0.364 1.618-0.634l-0.035 0.018v5.95c-0.478 0.284-1.032 0.516-1.618 0.667l-0.044 0.010c-0.512 0.13-1.037 0.198-1.564 0.201-0.011 0-0.024 0-0.036 0-0.409 0-0.806-0.051-1.185-0.148l0.033 0.007v-5.988c0.221 0.054 0.484 0.095 0.752 0.114l0.016 0.001zM7.755 1.297l-0.215 0.073c-0.716 0.258-1.543 0.407-2.405 0.407-0.135 0-0.269-0.004-0.402-0.011l0.019 0.001-0.175-0.011v4.858l0.149 0.013c0.123 0.009 0.267 0.015 0.413 0.015 0.505 0 0.995-0.065 1.462-0.188l-0.040 0.009c0.422-0.109 0.789-0.245 1.136-0.414l-0.035 0.015 0.094-0.043v-4.723z"></path>
<path fill="#afb1b8" style="fill: var(--color4, #afb1b8)" d="M0.585 9.005c-0.058-0.059-0.139-0.096-0.229-0.096-0.004 0-0.009 0-0.013 0l0.001-0c-0.047 0-0.094 0.009-0.139 0.026-0.12 0.048-0.203 0.163-0.203 0.298 0 0.006 0 0.011 0 0.017l-0-0.001v0.811c0 0.055 0.009 0.113 0.032 0.164 0.021 0.043 0.047 0.079 0.081 0.109 0.032 0.028 0.070 0.047 0.111 0.058s0.081 0.017 0.122 0.017c0.186-0.004 0.335-0.155 0.335-0.341 0-0 0-0 0-0v0-0.090h-0.213v0.070c0.002 0.026 0 0.051-0.011 0.073-0.007 0.018-0.017 0.034-0.030 0.047v0c-0.024 0.018-0.054 0.029-0.087 0.030h-0c-0.004 0.001-0.009 0.001-0.014 0.001-0.035 0-0.066-0.017-0.086-0.043l-0-0c-0.019-0.029-0.030-0.065-0.030-0.103 0-0.002 0-0.004 0-0.006v0-0.755c0-0.043 0.009-0.083 0.028-0.119 0.019-0.030 0.052-0.050 0.090-0.050 0.004 0 0.009 0 0.013 0.001l-0.001-0c0.001-0 0.002-0 0.004-0 0.037 0 0.069 0.018 0.090 0.045l0 0c0.023 0.029 0.036 0.065 0.036 0.105 0 0.001 0 0.001 0 0.002v-0 0.073h0.209v-0.083c0-0.001 0-0.002 0-0.003 0-0.097-0.036-0.186-0.096-0.254l0 0zM1.841 8.996c-0.065-0.054-0.149-0.088-0.242-0.088-0.045 0-0.088 0.008-0.128 0.022l0.003-0.001c-0.043 0.015-0.079 0.036-0.111 0.064-0.036 0.034-0.064 0.073-0.083 0.115-0.021 0.049-0.032 0.102-0.030 0.158v0.774c-0.002 0.055 0.009 0.109 0.030 0.16 0.019 0.043 0.047 0.079 0.083 0.107 0.032 0.032 0.068 0.055 0.111 0.070 0.037 0.014 0.081 0.022 0.126 0.022s0.088-0.008 0.128-0.023l-0.003 0.001c0.132-0.046 0.225-0.169 0.225-0.313 0-0.008-0-0.015-0.001-0.023l0 0.001v-0.777c0-0.005 0-0.010 0-0.015 0-0.101-0.043-0.192-0.111-0.256l-0-0zM1.743 10.042c0 0.004 0.001 0.008 0.001 0.012 0 0.040-0.017 0.075-0.043 0.101l-0 0c-0.027 0.022-0.061 0.036-0.099 0.036s-0.072-0.013-0.099-0.036l0 0c-0.027-0.025-0.043-0.061-0.043-0.101 0-0.004 0-0.009 0.001-0.013l-0 0.001v-0.774c-0-0.004-0.001-0.008-0.001-0.012 0-0.040 0.017-0.075 0.043-0.101l0-0c0.027-0.022 0.061-0.036 0.099-0.036s0.072 0.013 0.099 0.036l-0-0c0.027 0.025 0.043 0.061 0.043 0.101 0 0.004-0 0.009-0.001 0.013l0-0.001v0.774zM3.492 10.389v-1.472h-0.205l-0.267 0.779h-0.004l-0.269-0.779h-0.201v1.47h0.209v-0.896h0.004l0.205 0.634h0.107l0.207-0.631h0.002v0.894h0.211zM4.685 9.024c-0.032-0.038-0.073-0.064-0.119-0.081-0.044-0.015-0.094-0.024-0.146-0.024-0.002 0-0.004 0-0.006 0h-0.311v1.47h0.209v-0.576h0.107c0.066 0.004 0.13-0.009 0.19-0.038 0.085-0.053 0.144-0.139 0.162-0.239l0-0.002c0.008-0.049 0.013-0.106 0.013-0.164 0-0.075-0.008-0.148-0.023-0.218l0.001 0.007c-0.014-0.053-0.041-0.099-0.077-0.137l0 0zM4.578 9.472c-0.002 0.026-0.009 0.051-0.021 0.075-0.013 0.021-0.030 0.043-0.053 0.051-0.027 0.014-0.059 0.021-0.093 0.021-0.002 0-0.004-0-0.005-0h-0.096v-0.501h0.107c0.034 0 0.064 0.004 0.096 0.019 0.021 0.011 0.038 0.030 0.049 0.053s0.017 0.052 0.017 0.081v0.201zM5.675 8.919h-0.171l-0.32 1.47h0.209l0.062-0.316h0.284l0.064 0.316h0.207l-0.331-1.47zM5.483 9.873l0.105-0.533h0.002l0.102 0.533h-0.209zM7.029 9.805h-0.004l-0.316-0.885h-0.201v1.47h0.209v-0.883h0.004l0.318 0.883h0.196v-1.472h-0.209v0.885zM8.309 8.919l-0.171 0.585h-0.002l-0.171-0.585h-0.22l0.288 0.849v0.619h0.209v-0.619l0.288-0.849h-0.222zM0 10.803h0.1v0.284h0.070v-0.284h0.1v-0.058h-0.271v0.058zM0.849 10.746l-0.132 0.341h0.073l0.028-0.077h0.137l0.028 0.077h0.075l-0.134-0.341h-0.073zM0.838 10.953l0.045-0.128 0.047 0.128h-0.092zM1.685 10.961h0.081v0.043c-0.022 0.018-0.050 0.029-0.081 0.030h-0c-0.002 0-0.004 0-0.006 0-0.027 0-0.051-0.012-0.067-0.032l-0-0c-0.016-0.023-0.026-0.051-0.026-0.082 0-0.003 0-0.005 0-0.008l-0 0c0-0.075 0.032-0.113 0.098-0.113 0.002-0 0.004-0 0.007-0 0.033 0 0.061 0.023 0.070 0.053l0 0.001 0.068-0.013c-0.015-0.066-0.064-0.1-0.145-0.1-0.002-0-0.004-0-0.006-0-0.043 0-0.083 0.016-0.113 0.043l0-0c-0.031 0.030-0.050 0.072-0.050 0.119 0 0.005 0 0.010 0.001 0.014l-0-0.001c0 0.047 0.013 0.094 0.043 0.128 0.030 0.032 0.073 0.052 0.12 0.052 0.003 0 0.007-0 0.010-0l-0 0c0.053 0 0.107-0.019 0.145-0.055v-0.134h-0.149v0.058zM2.543 10.746h-0.068v0.341h0.239v-0.058h-0.171v-0.284zM3.268 10.746h-0.070v0.341h0.070v-0.341zM3.977 10.974l-0.141-0.228h-0.066v0.341h0.064v-0.222l0.137 0.222h0.068v-0.341h-0.064v0.228zM4.617 10.938h0.171v-0.058h-0.171v-0.077h0.181v-0.058h-0.252v0.341h0.26v-0.058h-0.192v-0.092zM6.167 10.88h-0.134v-0.134h-0.068v0.341h0.068v-0.149h0.134v0.149h0.068v-0.341h-0.068v0.134zM6.812 10.938h0.171v-0.058h-0.171v-0.077h0.183v-0.058h-0.252v0.341h0.258v-0.058h-0.19v-0.092zM7.684 10.938c0.060-0.011 0.090-0.043 0.090-0.096 0-0.003 0.001-0.006 0.001-0.010 0-0.027-0.013-0.050-0.032-0.065l-0-0c-0.026-0.014-0.056-0.022-0.089-0.022-0.004 0-0.008 0-0.012 0l0.001-0h-0.145v0.341h0.068v-0.143h0.013c0.015 0 0.030 0.002 0.043 0.009 0.011 0.006 0.021 0.015 0.026 0.026l0.075 0.107h0.081l-0.043-0.064c-0.017-0.034-0.043-0.064-0.075-0.085zM7.616 10.891h-0.051v-0.085h0.053c0.023-0.002 0.049 0 0.070 0.006 0.011 0.008 0.018 0.020 0.018 0.034s-0.008 0.028-0.019 0.036l-0 0c-0.017 0.006-0.037 0.009-0.058 0.009-0.004 0-0.009-0-0.013-0l0.001 0zM8.343 10.938h0.171v-0.058h-0.171v-0.077h0.183v-0.058h-0.252v0.341h0.258v-0.058h-0.19v-0.092z"></path>
</symbol>
<symbol id="icon-client-3" viewBox="0 0 64 32">
<path fill="#afb1b8" style="fill: var(--color4, #afb1b8)" d="M1.579 8.768l0.011 0.002 0.009 0.004 0.047 0.045c-0.036 0.036-0.081 0.064-0.13 0.085-0.060 0.021-0.124 0.032-0.186 0.030-0.060 0-0.119-0.009-0.175-0.028-0.098-0.034-0.176-0.107-0.215-0.2l-0.001-0.002c-0.020-0.047-0.032-0.102-0.032-0.159s0.012-0.112 0.033-0.162l-0.001 0.003c0.021-0.045 0.051-0.087 0.092-0.124 0.038-0.034 0.085-0.062 0.139-0.079 0.054-0.019 0.116-0.031 0.18-0.031 0.060 0 0.117 0.010 0.171 0.027l-0.004-0.001c0.045 0.017 0.087 0.043 0.124 0.073l-0.038 0.047c-0.003 0.003-0.006 0.006-0.010 0.008l-0 0c-0.004 0.003-0.009 0.004-0.015 0.004-0 0-0 0-0 0v0c-0.006-0.001-0.012-0.003-0.017-0.006l0 0-0.021-0.013-0.028-0.015c-0.043-0.022-0.093-0.034-0.147-0.034-0.005 0-0.011 0-0.016 0l0.001-0c-0.043 0-0.087 0.006-0.128 0.021-0.076 0.026-0.136 0.082-0.166 0.154l-0.001 0.002c-0.016 0.036-0.025 0.079-0.026 0.124v0c0 0.043 0.009 0.087 0.023 0.128 0.029 0.073 0.088 0.128 0.16 0.153l0.002 0.001c0.038 0.013 0.079 0.021 0.119 0.021l0.070-0.004c0.059-0.006 0.112-0.030 0.154-0.066l-0 0c0.006-0.005 0.013-0.008 0.021-0.009h0zM2.923 8.544c0 0.055-0.009 0.107-0.030 0.158-0.021 0.045-0.049 0.085-0.087 0.122-0.041 0.036-0.085 0.064-0.139 0.081-0.113 0.038-0.239 0.038-0.354 0-0.053-0.019-0.098-0.047-0.137-0.081l0 0c-0.037-0.034-0.066-0.075-0.087-0.121l-0.001-0.002c-0.043-0.1-0.043-0.213 0-0.314 0.021-0.047 0.049-0.087 0.087-0.124 0.041-0.034 0.085-0.060 0.137-0.079 0.053-0.018 0.114-0.029 0.177-0.029s0.124 0.011 0.181 0.030l-0.004-0.001c0.051 0.019 0.098 0.047 0.139 0.081 0.072 0.067 0.118 0.162 0.118 0.267 0 0.004-0 0.009-0 0.013l0-0.001zM2.801 8.544c0-0.043-0.006-0.085-0.021-0.126-0.028-0.072-0.086-0.128-0.158-0.153l-0.002-0.001c-0.038-0.013-0.082-0.021-0.128-0.021s-0.090 0.008-0.131 0.021l0.003-0.001c-0.039 0.013-0.072 0.034-0.1 0.060l0-0c-0.027 0.026-0.049 0.057-0.063 0.092l-0.001 0.002c-0.028 0.083-0.028 0.171 0 0.254 0.028 0.073 0.087 0.129 0.16 0.153l0.002 0.001c0.083 0.026 0.175 0.026 0.256 0 0.038-0.015 0.073-0.034 0.1-0.060 0.028-0.028 0.049-0.060 0.062-0.094 0.015-0.043 0.021-0.085 0.021-0.128zM3.84 8.676l0.013 0.030 0.013-0.030 0.015-0.028 0.299-0.469c0.004-0.006 0.011-0.013 0.015-0.013 0.008-0.003 0.016-0.004 0.026-0.004v0h0.087v0.764h-0.105v-0.61l-0.299 0.476c-0.004 0.007-0.010 0.013-0.017 0.017l-0 0c-0.007 0.004-0.016 0.006-0.025 0.006-0 0-0 0-0 0v0h-0.017c-0 0-0.001 0-0.001 0-0.009 0-0.018-0.002-0.025-0.007l0 0c-0.007-0.004-0.013-0.010-0.017-0.017l-0-0-0.307-0.48v0.614h-0.102v-0.764h0.090c0.009 0 0.015 0 0.023 0.004 0.006 0.002 0.013 0.006 0.017 0.013l0.303 0.469 0.015 0.028zM4.958 8.64v0.286h-0.115v-0.764h0.258c0.049 0 0.098 0.006 0.145 0.017 0.038 0.009 0.073 0.026 0.102 0.047 0.026 0.021 0.047 0.047 0.060 0.075 0.013 0.032 0.021 0.064 0.019 0.098 0 0.001 0 0.001 0 0.002 0 0.070-0.033 0.131-0.085 0.17l-0.001 0c-0.030 0.023-0.064 0.043-0.102 0.051-0.041 0.012-0.088 0.019-0.136 0.019-0.002 0-0.003 0-0.005-0h0l-0.141-0.002zM4.958 8.557h0.141c0.032 0 0.062-0.002 0.092-0.011 0.025-0.008 0.046-0.019 0.064-0.034l-0 0c0.033-0.027 0.053-0.068 0.053-0.113 0-0.001 0-0.001 0-0.002v0c0-0.002 0-0.005 0-0.008 0-0.019-0.004-0.037-0.011-0.053l0 0.001c-0.010-0.021-0.025-0.039-0.042-0.053l-0-0c-0.043-0.030-0.098-0.043-0.156-0.041h-0.141v0.314zM6.522 8.926h-0.092c-0.001 0-0.002 0-0.003 0-0.008 0-0.016-0.002-0.023-0.007l0 0c-0.006-0.004-0.011-0.010-0.015-0.017l-0-0-0.079-0.186h-0.397l-0.083 0.186c-0.007 0.015-0.022 0.026-0.039 0.026-0.001 0-0.002-0-0.004-0h-0.089l0.35-0.766h0.122l0.352 0.764zM5.946 8.642h0.329l-0.139-0.309c-0.009-0.020-0.018-0.044-0.025-0.069l-0.001-0.004-0.013 0.041-0.013 0.032-0.139 0.309zM7.025 8.166l0.017 0.013 0.51 0.576v-0.593h0.102v0.764h-0.058c-0.009 0-0.017 0-0.023-0.004-0.008-0.004-0.014-0.009-0.019-0.015l-0-0-0.508-0.576v0.595h-0.105v-0.764h0.064c0.004 0 0.013 0 0.019 0.004zM8.512 8.623v0.303h-0.115v-0.303l-0.322-0.461h0.105c0.001-0 0.002-0 0.003-0 0.008 0 0.016 0.002 0.023 0.007l-0-0 0.015 0.017 0.201 0.299c0.013 0.019 0.025 0.041 0.035 0.063l0.001 0.003 0.015-0.032 0.021-0.034 0.196-0.299c0.004-0.007 0.009-0.012 0.015-0.017l0-0c0.007-0.005 0.015-0.009 0.024-0.009 0.001 0 0.001 0 0.002 0h0.107l-0.324 0.463zM3.782 6.882l0.154 0.013c0.779-0.299 1.426-0.793 1.901-1.425l0.008-0.011c0.424-0.565 0.679-1.278 0.679-2.051 0-0.022-0-0.043-0.001-0.064l0 0.003-0.866-0.751c0.177 0.796 0.094 1.617-0.237 2.374-0.363 0.793-0.924 1.442-1.622 1.901l-0.017 0.010z"></path>
<path fill="#afb1b8" style="fill: var(--color4, #afb1b8)" d="M3.473 6.848l0.023 0.002c0.789-0.491 1.393-1.175 1.728-1.969 0.191-0.432 0.302-0.935 0.302-1.464 0-0.359-0.051-0.706-0.147-1.034l0.006 0.026-1.233-1.069c0.384 0.657 0.611 1.446 0.611 2.289 0 0.193-0.012 0.384-0.035 0.571l0.002-0.022c-0.14 1.041-0.594 1.958-1.261 2.672l0.003-0.003zM7.652 4.23c-0.24 0.871-0.753 1.598-1.44 2.102l-0.011 0.008c-0.213 0.162-0.444 0.305-0.687 0.429 0.595-0.151 1.143-0.42 1.6-0.785 0.441-0.35 0.793-0.793 1.028-1.301l0.009-0.022-0.499-0.431z"></path>
<path fill="#afb1b8" style="fill: var(--color4, #afb1b8)" d="M7.456 4.109l-0.713-0.619c-0.019 0.751-0.266 1.44-0.675 2.005l0.007-0.010c-0.445 0.613-1.032 1.098-1.714 1.412l-0.027 0.011h0.004c0.16 0 0.32-0.009 0.478-0.023 0.677-0.239 1.253-0.615 1.72-1.097l0.001-0.001c0.437-0.452 0.758-1.019 0.912-1.652l0.005-0.025zM3.578 0.887l-0.849-0.738c-0.758 0.249-1.394 0.695-1.87 1.277l-0.006 0.007c-0.435 0.537-0.701 1.227-0.708 1.978v0.002c0.011 0.833 0.336 1.588 0.862 2.155l-0.002-0.002c0.571 0.615 1.324 1.055 2.172 1.235l0.027 0.005c0.736-0.759 1.217-1.769 1.3-2.89l0.001-0.015c0.005-0.077 0.007-0.166 0.007-0.257 0-1.042-0.352-2.001-0.943-2.766l0.008 0.010zM9.417 3.996c-0.002-0.928-0.427-1.813-1.182-2.47-0.754-0.638-1.737-1.026-2.811-1.026-0.011 0-0.022 0-0.032 0h0.002c-0.493 0-0.981 0.079-1.442 0.235l5.197 4.512c0.169-0.367 0.268-0.797 0.269-1.25v-0z"></path>
</symbol>
<symbol id="icon-client-4" viewBox="0 0 64 32">
<path fill="#2196f3" style="fill: var(--color2, #2196f3)" d="M2.805 2.795c-0.512 0-0.928 0.369-0.928 0.823 0 0.457 0.416 0.823 0.926 0.823 0.512 0 0.928-0.367 0.928-0.823 0-0.454-0.416-0.823-0.926-0.823zM9.643 2.532c-0.002-0.631-0.286-1.237-0.789-1.685-0.499-0.433-1.156-0.698-1.874-0.698-0.006 0-0.012 0-0.017 0h0.001c-0.71 0-1.393 0.252-1.894 0.7-0.476 0.41-0.779 1.010-0.789 1.681l-0 0.002v3.482s5.363-0.531 5.363-3.482zM0 7.157c0 0.439 0.198 0.86 0.548 1.171 0.348 0.302 0.805 0.486 1.305 0.486 0.004 0 0.008 0 0.012-0h-0.001c0.495 0 0.969-0.175 1.318-0.486 0.331-0.286 0.541-0.703 0.548-1.17v-2.423s-3.731 0.369-3.731 2.421zM1.865 7.59c-0.096 0-0.192-0.023-0.271-0.073-0.078-0.046-0.139-0.112-0.178-0.191l-0.001-0.003c-0.023-0.049-0.037-0.106-0.037-0.166 0-0.030 0.003-0.060 0.010-0.088l-0 0.003c0.019-0.085 0.064-0.16 0.134-0.222 0.068-0.060 0.153-0.102 0.246-0.119l0.003-0c0.094-0.015 0.192-0.006 0.282 0.026s0.166 0.087 0.22 0.16c0.051 0.067 0.082 0.151 0.082 0.243 0 0.122-0.055 0.232-0.141 0.305l-0.001 0c-0.047 0.043-0.1 0.073-0.16 0.096-0.060 0.021-0.122 0.032-0.188 0.032zM5.276 6.814v0.911h-0.188v-0.911h0.188zM5.638 7.202v0.147h-0.414v-0.147h0.414zM5.681 6.814v0.147h-0.454v-0.147h0.457zM6.539 7.247v0.043c0 0.070-0.011 0.132-0.028 0.188-0.021 0.055-0.047 0.102-0.081 0.141s-0.075 0.068-0.122 0.087c-0.047 0.021-0.1 0.032-0.158 0.032-0.055 0-0.107-0.011-0.156-0.032-0.047-0.021-0.087-0.049-0.122-0.087-0.036-0.038-0.064-0.085-0.081-0.141-0.018-0.053-0.028-0.114-0.028-0.177 0-0.003 0-0.006 0-0.009v0-0.043c0-0.070 0.009-0.132 0.028-0.188s0.043-0.102 0.079-0.141c0.034-0.038 0.075-0.068 0.122-0.087 0.049-0.021 0.1-0.032 0.158-0.032s0.109 0.011 0.156 0.032c0.049 0.021 0.090 0.049 0.124 0.087s0.062 0.085 0.079 0.141c0.021 0.055 0.030 0.117 0.030 0.186zM6.349 7.29v-0.043c0-0.049-0.004-0.092-0.013-0.128-0.008-0.035-0.021-0.065-0.039-0.093l0.001 0.001c-0.030-0.047-0.082-0.077-0.14-0.077-0.003 0-0.006 0-0.009 0l0-0c-0.002-0-0.004-0-0.006-0-0.058 0-0.11 0.029-0.141 0.074l-0 0.001c-0.013 0.026-0.026 0.058-0.036 0.094-0.008 0.036-0.013 0.077-0.013 0.119 0 0.003 0 0.006 0 0.010v-0 0.043c0 0.049 0.004 0.092 0.013 0.128 0.011 0.038 0.021 0.068 0.041 0.094 0.017 0.026 0.036 0.043 0.062 0.058 0.023 0.013 0.053 0.019 0.085 0.019 0.030 0 0.058-0.006 0.083-0.021 0.025-0.013 0.046-0.032 0.061-0.055l0-0.001c0.017-0.026 0.030-0.055 0.038-0.094 0.009-0.036 0.013-0.079 0.013-0.128zM7.147 7.486c0-0.001 0-0.002 0-0.004 0-0.014-0.002-0.027-0.007-0.040l0 0.001c-0.006-0.015-0.015-0.027-0.028-0.036l-0-0c-0.015-0.013-0.033-0.025-0.052-0.034l-0.001-0.001c-0.025-0.011-0.055-0.023-0.086-0.033l-0.005-0.001-0.117-0.043c-0.037-0.017-0.068-0.037-0.097-0.060l0.001 0.001c-0.028-0.021-0.051-0.049-0.066-0.079-0.016-0.029-0.026-0.064-0.026-0.101 0-0 0-0.001 0-0.001v0c0-0 0-0.001 0-0.001 0-0.037 0.009-0.072 0.026-0.102l-0.001 0.001c0.017-0.032 0.041-0.060 0.070-0.081s0.064-0.041 0.107-0.051c0.039-0.012 0.084-0.018 0.131-0.018 0.065 0 0.127 0.013 0.184 0.036l-0.003-0.001c0.049 0.026 0.087 0.058 0.115 0.1s0.043 0.090 0.043 0.145h-0.188c0-0.002 0-0.005 0-0.007 0-0.023-0.006-0.045-0.015-0.064l0 0.001c-0.012-0.021-0.029-0.038-0.051-0.049l-0.001-0c-0.022-0.011-0.049-0.017-0.077-0.017-0.003 0-0.006 0-0.009 0l0-0c-0.001-0-0.003-0-0.005-0-0.027 0-0.052 0.005-0.076 0.015l0.001-0c-0.020 0.008-0.037 0.021-0.049 0.038l-0 0c-0.011 0.015-0.017 0.034-0.017 0.055 0 0 0 0.001 0 0.001v-0c0 0.015 0.004 0.030 0.013 0.043 0.006 0.013 0.019 0.023 0.034 0.034l0.058 0.032 0.077 0.028c0.049 0.015 0.094 0.032 0.13 0.051 0.038 0.017 0.070 0.038 0.096 0.064 0.047 0.043 0.077 0.105 0.077 0.174 0 0.001 0 0.002-0 0.004v-0c0 0.041-0.009 0.077-0.021 0.107-0.017 0.032-0.038 0.058-0.068 0.081-0.030 0.021-0.064 0.036-0.107 0.049-0.038 0.010-0.082 0.016-0.127 0.016-0.096 0-0.185-0.027-0.262-0.073l0.002 0.001c-0.071-0.049-0.117-0.129-0.117-0.221 0-0.002 0-0.004 0-0.005v0h0.188c0 0.028 0.004 0.053 0.015 0.073 0.009 0.019 0.021 0.034 0.036 0.047s0.034 0.021 0.058 0.026c0.021 0.006 0.047 0.009 0.073 0.009 0.034 0 0.060-0.004 0.081-0.013 0.038-0.014 0.064-0.050 0.064-0.092 0-0.001 0-0.001-0-0.002v0zM7.87 6.814v0.911h-0.19v-0.911h0.188zM8.147 6.814v0.147h-0.74v-0.147h0.742zM8.866 7.578v0.147h-0.482v-0.147h0.484zM8.444 6.814v0.911h-0.188v-0.911h0.188zM8.804 7.185v0.143h-0.422v-0.143h0.422zM8.866 6.814v0.147h-0.484v-0.147h0.484zM8.975 6.814h0.341c0.068 0 0.128 0.011 0.179 0.032 0.049 0.021 0.087 0.051 0.115 0.092 0.028 0.043 0.043 0.092 0.043 0.149 0 0.051-0.011 0.092-0.028 0.128-0.015 0.034-0.038 0.064-0.068 0.085-0.030 0.023-0.064 0.043-0.107 0.055l-0.058 0.032h-0.294v-0.147h0.218c0.002 0 0.004 0 0.006 0 0.027 0 0.053-0.006 0.076-0.018l-0.001 0c0.021-0.011 0.038-0.028 0.049-0.049 0.011-0.020 0.017-0.044 0.017-0.069 0-0.001 0-0.002-0-0.003v0c0-0.002 0-0.004 0-0.006 0-0.025-0.006-0.049-0.015-0.070l0 0.001c-0.011-0.022-0.029-0.039-0.051-0.049l-0.001-0c-0.023-0.011-0.049-0.017-0.077-0.017-0.002 0-0.004 0-0.007 0h-0.149v0.764h-0.19v-0.911zM9.485 7.725l-0.207-0.405 0.196-0.002 0.211 0.399v0.009h-0.201zM10.468 7.401h-0.228v-0.147h0.23c0.036 0 0.064-0.006 0.087-0.017 0.021-0.013 0.041-0.030 0.049-0.051 0.011-0.021 0.017-0.043 0.017-0.070s-0.006-0.054-0.018-0.078l0 0.001c-0.011-0.023-0.028-0.042-0.049-0.055l-0.001-0c-0.023-0.013-0.051-0.021-0.081-0.021-0.002 0-0.003 0-0.005 0h-0.168v0.764h-0.188v-0.911h0.354c0.073 0 0.132 0.013 0.183 0.038 0.094 0.046 0.158 0.141 0.158 0.25 0 0.003-0 0.007-0 0.010v-0c0 0.060-0.013 0.111-0.041 0.154-0.026 0.043-0.064 0.075-0.117 0.098-0.051 0.023-0.111 0.036-0.183 0.036zM11.55 7.578v0.147h-0.484v-0.147h0.484zM11.127 6.814v0.911h-0.188v-0.911h0.188zM11.488 7.185v0.143h-0.422v-0.143h0.422zM11.55 6.814v0.147h-0.484v-0.147h0.484zM12.079 6.814v0.911h-0.188v-0.911h0.188zM12.358 6.814v0.147h-0.742v-0.147h0.742zM13.077 7.578v0.147h-0.484v-0.147h0.484zM12.653 6.814v0.911h-0.188v-0.911h0.188zM13.013 7.185v0.143h-0.42v-0.143h0.42zM13.077 6.814v0.147h-0.484v-0.147h0.482zM13.184 6.814h0.341c0.070 0 0.128 0.011 0.179 0.032s0.090 0.051 0.115 0.092c0.028 0.043 0.043 0.092 0.043 0.149 0 0.051-0.009 0.092-0.026 0.128-0.017 0.034-0.041 0.064-0.070 0.085-0.030 0.023-0.064 0.043-0.105 0.055l-0.058 0.032h-0.297v-0.147h0.218c0.002 0 0.005 0 0.008 0 0.027 0 0.053-0.006 0.076-0.018l-0.001 0c0.021-0.011 0.038-0.028 0.049-0.049 0.011-0.020 0.017-0.044 0.017-0.069 0-0.001 0-0.002-0-0.003v0c0-0.001 0-0.001 0-0.002 0-0.027-0.006-0.052-0.018-0.074l0 0.001c-0.011-0.021-0.028-0.038-0.048-0.049l-0.001-0c-0.023-0.011-0.049-0.017-0.077-0.017-0.003 0-0.006 0-0.009 0h-0.149v0.764h-0.188v-0.911zM13.696 7.725l-0.209-0.405 0.198-0.002 0.209 0.399v0.009h-0.201zM14.479 7.486c0-0.001 0-0.002 0-0.004 0-0.014-0.002-0.027-0.007-0.040l0 0.001c-0.006-0.015-0.015-0.027-0.028-0.036l-0-0c-0.015-0.013-0.033-0.025-0.052-0.034l-0.001-0.001c-0.025-0.011-0.055-0.023-0.086-0.033l-0.005-0.001-0.117-0.043c-0.037-0.017-0.068-0.037-0.097-0.060l0.001 0.001c-0.028-0.021-0.051-0.049-0.066-0.079-0.015-0.028-0.024-0.062-0.024-0.097 0-0.002 0-0.004 0-0.005v0c-0-0.002-0-0.003-0-0.005 0-0.036 0.009-0.069 0.024-0.099l-0.001 0.001c0.017-0.032 0.041-0.060 0.070-0.081s0.064-0.041 0.107-0.051c0.039-0.012 0.084-0.018 0.131-0.018 0.065 0 0.127 0.013 0.184 0.036l-0.003-0.001c0.049 0.026 0.087 0.058 0.115 0.1s0.043 0.090 0.043 0.145h-0.186c0-0.001 0-0.002 0-0.003 0-0.025-0.006-0.048-0.017-0.068l0 0.001c-0.012-0.021-0.029-0.038-0.051-0.049l-0.001-0c-0.022-0.011-0.049-0.017-0.077-0.017-0.002 0-0.005 0-0.007 0h0c-0.002-0-0.004-0-0.007-0-0.027 0-0.053 0.006-0.076 0.016l0.001-0c-0.020 0.008-0.037 0.021-0.049 0.038l-0 0c-0.011 0.015-0.017 0.034-0.017 0.055 0 0 0 0.001 0 0.001v-0c0 0.015 0.004 0.030 0.013 0.043 0.006 0.013 0.019 0.023 0.034 0.034l0.058 0.032 0.077 0.028c0.051 0.015 0.094 0.032 0.132 0.051 0.036 0.017 0.068 0.038 0.094 0.064 0.047 0.043 0.077 0.105 0.077 0.174 0 0.001 0 0.002-0 0.004v-0c0 0.041-0.006 0.077-0.021 0.107-0.017 0.032-0.038 0.058-0.068 0.081-0.030 0.021-0.064 0.036-0.105 0.049-0.038 0.011-0.083 0.017-0.128 0.017-0.096 0-0.186-0.027-0.262-0.073l0.002 0.001c-0.071-0.049-0.117-0.129-0.117-0.221 0-0.002 0-0.004 0-0.005v0h0.19c0 0.028 0.004 0.053 0.013 0.073s0.021 0.034 0.036 0.047c0.017 0.013 0.036 0.021 0.058 0.026 0.021 0.006 0.047 0.009 0.073 0.009 0.034 0 0.060-0.004 0.081-0.013 0.038-0.014 0.064-0.050 0.064-0.092 0-0.001 0-0.001-0-0.002v0z"></path>
</symbol>
<symbol id="icon-client-5" viewBox="0 0 64 32">
<path fill="#afb1b8" style="fill: var(--color4, #afb1b8)" d="M1.015 8.265c0.051 0.058 0.079 0.132 0.077 0.207 0.004 0.049-0.006 0.098-0.028 0.145-0.021 0.045-0.051 0.085-0.092 0.119-0.102 0.068-0.226 0.102-0.354 0.096h-0.619v-1.323h0.606c0.010-0.001 0.022-0.001 0.033-0.001 0.113 0 0.218 0.034 0.306 0.092l-0.002-0.001c0.038 0.030 0.070 0.068 0.090 0.111 0.021 0.043 0.030 0.090 0.028 0.137 0.004 0.073-0.021 0.143-0.070 0.201-0.047 0.053-0.111 0.090-0.183 0.105 0.081 0.013 0.156 0.053 0.209 0.113zM0.29 8.064h0.256c0.060 0.004 0.119-0.011 0.166-0.043 0.021-0.017 0.034-0.036 0.043-0.060 0.011-0.021 0.015-0.047 0.013-0.070 0-0.004 0.001-0.009 0.001-0.013 0-0.021-0.004-0.040-0.012-0.058l0 0.001c-0.010-0.023-0.025-0.042-0.042-0.057l-0-0c-0.042-0.029-0.094-0.046-0.149-0.046-0.008 0-0.015 0-0.022 0.001l0.001-0h-0.256v0.346zM0.738 8.572c0.021-0.017 0.036-0.038 0.047-0.062 0.011-0.021 0.015-0.049 0.015-0.073 0-0.002 0-0.005 0-0.008 0-0.024-0.006-0.047-0.016-0.067l0 0.001c-0.012-0.025-0.028-0.046-0.049-0.062l-0-0c-0.044-0.030-0.099-0.047-0.158-0.047-0.006 0-0.012 0-0.018 0.001l0.001-0h-0.273v0.363h0.277c0.060 0.004 0.122-0.013 0.171-0.047zM2.255 8.832l-0.335-0.516h-0.128v0.516h-0.292v-1.323h0.55c0.012-0.001 0.026-0.001 0.039-0.001 0.13 0 0.25 0.043 0.346 0.115l-0.001-0.001c0.081 0.073 0.132 0.178 0.132 0.295 0 0.095-0.034 0.183-0.090 0.251l0.001-0.001c-0.070 0.073-0.164 0.119-0.265 0.134l0.358 0.529h-0.316zM1.792 8.134h0.239c0.164 0 0.247-0.064 0.247-0.198 0-0.003 0-0.006 0-0.009 0-0.026-0.006-0.051-0.016-0.074l0 0.001c-0.011-0.027-0.027-0.050-0.047-0.068l-0-0c-0.045-0.034-0.102-0.054-0.163-0.054-0.008 0-0.016 0-0.023 0.001l0.001-0h-0.243l0.002 0.401zM3.842 8.565h-0.578l-0.102 0.267h-0.305l0.533-1.308h0.329l0.529 1.308h-0.305l-0.102-0.267zM3.765 8.365l-0.213-0.557-0.211 0.557h0.425zM5.828 8.832h-0.288l-0.646-0.898v0.896h-0.286v-1.318h0.288l0.646 0.902v-0.902h0.288v1.321zM7.473 8.514c-0.060 0.1-0.149 0.181-0.26 0.235-0.126 0.058-0.265 0.085-0.405 0.083h-0.512v-1.323h0.512c0.141-0.002 0.279 0.026 0.405 0.083 0.111 0.051 0.201 0.13 0.26 0.23 0.056 0.1 0.089 0.219 0.089 0.346s-0.033 0.246-0.091 0.349l0.002-0.004zM7.145 8.484c0.081-0.087 0.128-0.201 0.128-0.316s-0.047-0.228-0.128-0.316c-0.089-0.070-0.203-0.112-0.326-0.112-0.013 0-0.025 0-0.038 0.001l0.002-0h-0.198v0.853h0.201c0.13 0.009 0.26-0.032 0.361-0.111zM4.023 0.164s3.718 1.284 3.639 3.147v3.147s-3.716-1.286-3.639-3.147v-3.147zM10.978 5.722c0.674-0.428 1.478-0.714 2.342-0.796l0.022-0.002v-0.986c-0.978 0.343-1.787 0.964-2.354 1.768l-0.010 0.015z"></path>
<path fill="#afb1b8" style="fill: var(--color4, #afb1b8)" d="M10.556 6.016c0.611-1.076 1.584-1.887 2.751-2.273l0.035-0.010v-2.844s-5.299 1.837-5.186 4.486v4.48s0.235-0.081 0.608-0.235c0-0.145 0-0.288 0.017-0.433 0.132-1.299 0.795-2.421 1.764-3.162l0.011-0.008z"></path>
<path fill="#afb1b8" style="fill: var(--color4, #afb1b8)" d="M10.052 7.682c0.028-0.309 0.090-0.619 0.186-0.917-0.668 0.709-1.088 1.657-1.122 2.703l-0 0.007c0.301-0.134 0.651-0.299 1.020-0.493-0.094-0.427-0.122-0.864-0.083-1.299zM10.261 7.699c-0.034 0.393-0.011 0.789 0.066 1.173 1.449-0.791 3.074-2.016 3.012-3.499v-0.128c-1.063 0.106-2.010 0.534-2.76 1.183l0.006-0.005c-0.166 0.373-0.28 0.806-0.321 1.26l-0.001 0.016z"></path>
</symbol>
<symbol id="icon-client-6" viewBox="0 0 64 32">
<path fill="#afb1b8" style="fill: var(--color4, #afb1b8)" d="M10.116 4.565c-0.081-0.105-0.129-0.238-0.129-0.382 0-0.014 0-0.028 0.001-0.042l-0 0.002v-0.614c0-0.19 0.043-0.333 0.128-0.431s0.235-0.147 0.442-0.145c0.194 0 0.335 0.043 0.416 0.124 0.090 0.107 0.132 0.237 0.124 0.369v0.143h-0.35v-0.145c0-0.049-0.002-0.096-0.011-0.143-0.006-0.035-0.024-0.064-0.049-0.085l-0-0c-0.032-0.022-0.071-0.035-0.113-0.035-0.005 0-0.010 0-0.015 0.001l0.001-0c-0.004-0-0.008-0-0.013-0-0.045 0-0.086 0.014-0.12 0.037l0.001-0c-0.030 0.023-0.051 0.055-0.060 0.093l-0 0.001c-0.009 0.049-0.013 0.1-0.013 0.149v0.747c-0.006 0.075 0.011 0.145 0.045 0.211 0.017 0.021 0.043 0.041 0.070 0.051 0.020 0.008 0.043 0.012 0.067 0.012 0.008 0 0.016-0 0.024-0.001l-0.001 0c0.005 0 0.011 0.001 0.017 0.001 0.040 0 0.077-0.012 0.108-0.033l-0.001 0c0.028-0.023 0.047-0.054 0.053-0.091l0-0.001c0.006-0.049 0.011-0.1 0.011-0.149v-0.154h0.35v0.139c0.009 0.137-0.034 0.273-0.122 0.386-0.081 0.092-0.218 0.137-0.418 0.137-0.203 0-0.354-0.049-0.442-0.149zM11.575 4.574c-0.090-0.096-0.132-0.235-0.132-0.42v-0.646c0-0.183 0.043-0.32 0.132-0.416 0.087-0.094 0.235-0.141 0.444-0.139 0.205 0 0.352 0.045 0.439 0.139 0.090 0.094 0.134 0.233 0.134 0.416v0.646c0 0.183-0.045 0.322-0.134 0.418-0.090 0.098-0.235 0.145-0.439 0.145s-0.356-0.049-0.444-0.143zM12.181 4.418c0.032-0.060 0.047-0.126 0.043-0.192v-0.791c0.004-0.064-0.011-0.128-0.043-0.188-0.018-0.023-0.042-0.040-0.069-0.051l-0.001-0c-0.020-0.008-0.043-0.012-0.067-0.012-0.009 0-0.017 0.001-0.025 0.002l0.001-0c-0.008-0.001-0.016-0.002-0.025-0.002-0.025 0-0.048 0.005-0.070 0.013l0.001-0c-0.029 0.011-0.054 0.028-0.072 0.051l-0 0c-0.030 0.058-0.045 0.124-0.043 0.188v0.796c-0.002 0.064 0.011 0.132 0.043 0.192 0.044 0.039 0.102 0.063 0.165 0.063 0.032 0 0.062-0.006 0.090-0.017l-0.002 0.001c0.030-0.011 0.053-0.028 0.075-0.047v-0.004zM13.013 2.97h0.378l0.284 1.195 0.29-1.195h0.367l0.036 1.724h-0.271l-0.030-1.197-0.277 1.197h-0.222l-0.29-1.201-0.026 1.201h-0.275l0.034-1.724zM14.79 2.97h0.587c0.339 0 0.508 0.164 0.508 0.491 0 0.311-0.177 0.469-0.533 0.469h-0.201v0.764h-0.363l0.002-1.724zM15.292 3.708c0.036 0.002 0.073 0 0.107-0.009 0.034-0.011 0.066-0.026 0.094-0.047 0.041-0.058 0.060-0.128 0.051-0.194 0-0.053-0.004-0.107-0.017-0.158-0.006-0.018-0.016-0.034-0.028-0.047l0 0c-0.012-0.014-0.027-0.025-0.044-0.034l-0.001-0c-0.051-0.021-0.107-0.030-0.162-0.028h-0.141v0.516h0.141zM16.405 2.97h0.39l0.401 1.724h-0.339l-0.079-0.397h-0.348l-0.081 0.397h-0.341l0.399-1.724zM16.74 4.096l-0.137-0.723-0.134 0.725h0.271zM17.519 2.97h0.254l0.484 0.983v-0.981h0.303v1.722h-0.241l-0.489-1.024v1.024h-0.311v-1.724zM19.264 4.036l-0.405-1.065h0.341l0.245 0.683 0.23-0.683h0.333l-0.397 1.067v0.655h-0.35v-0.657zM10.677 5.446v0.090h-0.297v0.702h-0.124v-0.702h-0.299v-0.090h0.719zM11.605 6.238h-0.098c-0.010 0-0.019-0.003-0.026-0.009l0 0c-0.007-0.004-0.013-0.010-0.017-0.017l-0-0-0.085-0.188h-0.41l-0.085 0.188c-0.003 0.008-0.007 0.016-0.013 0.021v0c-0.007 0.004-0.014 0.007-0.023 0.007-0.002 0-0.003-0-0.005-0l0 0h-0.096l0.363-0.789h0.128l0.365 0.787zM11.004 5.943h0.341l-0.145-0.32c-0.009-0.021-0.018-0.046-0.025-0.073l-0.001-0.004-0.015 0.043-0.013 0.034-0.143 0.32zM12.228 6.159h0.068c0.040-0.002 0.078-0.010 0.114-0.022l-0.003 0.001 0.047-0.021v-0.177h-0.145c-0 0-0 0-0.001 0-0.007 0-0.013-0.002-0.019-0.006l0 0c-0.002-0.002-0.003-0.004-0.004-0.006l-0-0-0.002-0.009v-0.060h0.282v0.303c-0.069 0.043-0.152 0.072-0.241 0.079l-0.002 0c-0.036 0.004-0.070 0.006-0.107 0.006-0.064 0-0.124-0.011-0.183-0.030-0.056-0.020-0.104-0.048-0.146-0.084l0.001 0c-0.038-0.034-0.069-0.075-0.091-0.121l-0.001-0.002c-0.023-0.053-0.034-0.109-0.034-0.164-0-0.004-0-0.009-0-0.013 0-0.111 0.050-0.21 0.128-0.276l0.001-0c0.038-0.036 0.090-0.064 0.143-0.083 0.057-0.019 0.122-0.030 0.19-0.030 0.037 0 0.073 0.003 0.108 0.010l-0.004-0.001c0.060 0.009 0.114 0.027 0.163 0.053l-0.003-0.001c0.021 0.011 0.043 0.026 0.064 0.041l-0.036 0.049c-0.003 0.005-0.008 0.008-0.013 0.011l-0 0c-0.004 0.002-0.009 0.004-0.015 0.004h-0c-0.008-0-0.015-0.003-0.022-0.007l0 0c-0.013-0.004-0.023-0.011-0.036-0.019-0.058-0.028-0.125-0.045-0.197-0.045-0.004 0-0.007 0-0.010 0h0.001c-0.002-0-0.005-0-0.007-0-0.048 0-0.094 0.008-0.136 0.022l0.003-0.001c-0.043 0.015-0.077 0.036-0.107 0.064-0.029 0.026-0.052 0.058-0.068 0.094l-0.001 0.002c-0.032 0.085-0.032 0.179 0 0.265 0.050 0.107 0.157 0.18 0.281 0.18 0.014 0 0.027-0.001 0.041-0.003l-0.002 0zM13.385 6.146h0.395v0.092h-0.516v-0.789h0.124l-0.002 0.698zM14.191 6.238h-0.124v-0.789h0.124v0.789zM14.652 5.451c0.009 0.004 0.015 0.009 0.019 0.015l0.529 0.595v-0.617h0.107v0.794h-0.060c-0.011 0-0.019 0-0.028-0.004-0.007-0.004-0.014-0.009-0.019-0.015l-0-0-0.529-0.597v0.617h-0.105v-0.789h0.085zM16.222 5.446v0.085h-0.439v0.262h0.356v0.085h-0.356v0.269h0.439v0.085h-0.567v-0.787h0.567zM3.234 0.567l5.504 1.348v4.727l-5.504-1.348v-4.727zM2.882 0.162v5.363l6.208 1.523v-5.363l-6.21-1.521z"></path>
<path fill="#afb1b8" style="fill: var(--color4, #afb1b8)" d="M6.208 9.536l-6.208-1.527v-5.357l6.208 1.523v5.359z"></path>
<path fill="#afb1b8" style="fill: var(--color4, #afb1b8)" d="M2.985 0.506l5.431 1.333-2.31 1.993-5.431-1.331 2.31-1.995zM2.882 0.164l-2.882 2.487 6.208 1.523 2.88-2.49-6.208-1.521zM6.558 9.233l2.532-2.187-2.532-0.621v2.807z"></path>
</symbol>
</defs>
</svg>
