<!-- Generated by IcoMoon.io -->
<svg version="1.1" xmlns="http://www.w3.org/2000/svg" width="64" height="32" viewBox="0 0 64 32">
<title>client-5</title>
<path fill="#afb1b8" d="M1.015 8.265c0.051 0.058 0.079 0.132 0.077 0.207 0.004 0.049-0.006 0.098-0.028 0.145-0.021 0.045-0.051 0.085-0.092 0.119-0.102 0.068-0.226 0.102-0.354 0.096h-0.619v-1.323h0.606c0.010-0.001 0.022-0.001 0.033-0.001 0.113 0 0.218 0.034 0.306 0.092l-0.002-0.001c0.038 0.030 0.070 0.068 0.090 0.111 0.021 0.043 0.030 0.090 0.028 0.137 0.004 0.073-0.021 0.143-0.070 0.201-0.047 0.053-0.111 0.090-0.183 0.105 0.081 0.013 0.156 0.053 0.209 0.113zM0.29 8.064h0.256c0.060 0.004 0.119-0.011 0.166-0.043 0.021-0.017 0.034-0.036 0.043-0.060 0.011-0.021 0.015-0.047 0.013-0.070 0-0.004 0.001-0.009 0.001-0.013 0-0.021-0.004-0.040-0.012-0.058l0 0.001c-0.010-0.023-0.025-0.042-0.042-0.057l-0-0c-0.042-0.029-0.094-0.046-0.149-0.046-0.008 0-0.015 0-0.022 0.001l0.001-0h-0.256v0.346zM0.738 8.572c0.021-0.017 0.036-0.038 0.047-0.062 0.011-0.021 0.015-0.049 0.015-0.073 0-0.002 0-0.005 0-0.008 0-0.024-0.006-0.047-0.016-0.067l0 0.001c-0.012-0.025-0.028-0.046-0.049-0.062l-0-0c-0.044-0.030-0.099-0.047-0.158-0.047-0.006 0-0.012 0-0.018 0.001l0.001-0h-0.273v0.363h0.277c0.060 0.004 0.122-0.013 0.171-0.047zM2.255 8.832l-0.335-0.516h-0.128v0.516h-0.292v-1.323h0.55c0.012-0.001 0.026-0.001 0.039-0.001 0.13 0 0.25 0.043 0.346 0.115l-0.001-0.001c0.081 0.073 0.132 0.178 0.132 0.295 0 0.095-0.034 0.183-0.090 0.251l0.001-0.001c-0.070 0.073-0.164 0.119-0.265 0.134l0.358 0.529h-0.316zM1.792 8.134h0.239c0.164 0 0.247-0.064 0.247-0.198 0-0.003 0-0.006 0-0.009 0-0.026-0.006-0.051-0.016-0.074l0 0.001c-0.011-0.027-0.027-0.050-0.047-0.068l-0-0c-0.045-0.034-0.102-0.054-0.163-0.054-0.008 0-0.016 0-0.023 0.001l0.001-0h-0.243l0.002 0.401zM3.842 8.565h-0.578l-0.102 0.267h-0.305l0.533-1.308h0.329l0.529 1.308h-0.305l-0.102-0.267zM3.765 8.365l-0.213-0.557-0.211 0.557h0.425zM5.828 8.832h-0.288l-0.646-0.898v0.896h-0.286v-1.318h0.288l0.646 0.902v-0.902h0.288v1.321zM7.473 8.514c-0.060 0.1-0.149 0.181-0.26 0.235-0.126 0.058-0.265 0.085-0.405 0.083h-0.512v-1.323h0.512c0.141-0.002 0.279 0.026 0.405 0.083 0.111 0.051 0.201 0.13 0.26 0.23 0.056 0.1 0.089 0.219 0.089 0.346s-0.033 0.246-0.091 0.349l0.002-0.004zM7.145 8.484c0.081-0.087 0.128-0.201 0.128-0.316s-0.047-0.228-0.128-0.316c-0.089-0.070-0.203-0.112-0.326-0.112-0.013 0-0.025 0-0.038 0.001l0.002-0h-0.198v0.853h0.201c0.13 0.009 0.26-0.032 0.361-0.111zM4.023 0.164s3.718 1.284 3.639 3.147v3.147s-3.716-1.286-3.639-3.147v-3.147zM10.978 5.722c0.674-0.428 1.478-0.714 2.342-0.796l0.022-0.002v-0.986c-0.978 0.343-1.787 0.964-2.354 1.768l-0.010 0.015z"></path>
<path fill="#afb1b8" d="M10.556 6.016c0.611-1.076 1.584-1.887 2.751-2.273l0.035-0.010v-2.844s-5.299 1.837-5.186 4.486v4.48s0.235-0.081 0.608-0.235c0-0.145 0-0.288 0.017-0.433 0.132-1.299 0.795-2.421 1.764-3.162l0.011-0.008z"></path>
<path fill="#afb1b8" d="M10.052 7.682c0.028-0.309 0.090-0.619 0.186-0.917-0.668 0.709-1.088 1.657-1.122 2.703l-0 0.007c0.301-0.134 0.651-0.299 1.020-0.493-0.094-0.427-0.122-0.864-0.083-1.299zM10.261 7.699c-0.034 0.393-0.011 0.789 0.066 1.173 1.449-0.791 3.074-2.016 3.012-3.499v-0.128c-1.063 0.106-2.010 0.534-2.76 1.183l0.006-0.005c-0.166 0.373-0.28 0.806-0.321 1.26l-0.001 0.016z"></path>
</svg>
