<!-- Generated by IcoMoon.io -->
<svg version="1.1" xmlns="http://www.w3.org/2000/svg" width="64" height="32" viewBox="0 0 64 32">
<title>client-6</title>
<path fill="#afb1b8" d="M10.116 4.565c-0.081-0.105-0.129-0.238-0.129-0.382 0-0.014 0-0.028 0.001-0.042l-0 0.002v-0.614c0-0.19 0.043-0.333 0.128-0.431s0.235-0.147 0.442-0.145c0.194 0 0.335 0.043 0.416 0.124 0.090 0.107 0.132 0.237 0.124 0.369v0.143h-0.35v-0.145c0-0.049-0.002-0.096-0.011-0.143-0.006-0.035-0.024-0.064-0.049-0.085l-0-0c-0.032-0.022-0.071-0.035-0.113-0.035-0.005 0-0.010 0-0.015 0.001l0.001-0c-0.004-0-0.008-0-0.013-0-0.045 0-0.086 0.014-0.12 0.037l0.001-0c-0.030 0.023-0.051 0.055-0.060 0.093l-0 0.001c-0.009 0.049-0.013 0.1-0.013 0.149v0.747c-0.006 0.075 0.011 0.145 0.045 0.211 0.017 0.021 0.043 0.041 0.070 0.051 0.020 0.008 0.043 0.012 0.067 0.012 0.008 0 0.016-0 0.024-0.001l-0.001 0c0.005 0 0.011 0.001 0.017 0.001 0.040 0 0.077-0.012 0.108-0.033l-0.001 0c0.028-0.023 0.047-0.054 0.053-0.091l0-0.001c0.006-0.049 0.011-0.1 0.011-0.149v-0.154h0.35v0.139c0.009 0.137-0.034 0.273-0.122 0.386-0.081 0.092-0.218 0.137-0.418 0.137-0.203 0-0.354-0.049-0.442-0.149zM11.575 4.574c-0.090-0.096-0.132-0.235-0.132-0.42v-0.646c0-0.183 0.043-0.32 0.132-0.416 0.087-0.094 0.235-0.141 0.444-0.139 0.205 0 0.352 0.045 0.439 0.139 0.090 0.094 0.134 0.233 0.134 0.416v0.646c0 0.183-0.045 0.322-0.134 0.418-0.090 0.098-0.235 0.145-0.439 0.145s-0.356-0.049-0.444-0.143zM12.181 4.418c0.032-0.060 0.047-0.126 0.043-0.192v-0.791c0.004-0.064-0.011-0.128-0.043-0.188-0.018-0.023-0.042-0.040-0.069-0.051l-0.001-0c-0.020-0.008-0.043-0.012-0.067-0.012-0.009 0-0.017 0.001-0.025 0.002l0.001-0c-0.008-0.001-0.016-0.002-0.025-0.002-0.025 0-0.048 0.005-0.070 0.013l0.001-0c-0.029 0.011-0.054 0.028-0.072 0.051l-0 0c-0.030 0.058-0.045 0.124-0.043 0.188v0.796c-0.002 0.064 0.011 0.132 0.043 0.192 0.044 0.039 0.102 0.063 0.165 0.063 0.032 0 0.062-0.006 0.090-0.017l-0.002 0.001c0.030-0.011 0.053-0.028 0.075-0.047v-0.004zM13.013 2.97h0.378l0.284 1.195 0.29-1.195h0.367l0.036 1.724h-0.271l-0.030-1.197-0.277 1.197h-0.222l-0.29-1.201-0.026 1.201h-0.275l0.034-1.724zM14.79 2.97h0.587c0.339 0 0.508 0.164 0.508 0.491 0 0.311-0.177 0.469-0.533 0.469h-0.201v0.764h-0.363l0.002-1.724zM15.292 3.708c0.036 0.002 0.073 0 0.107-0.009 0.034-0.011 0.066-0.026 0.094-0.047 0.041-0.058 0.060-0.128 0.051-0.194 0-0.053-0.004-0.107-0.017-0.158-0.006-0.018-0.016-0.034-0.028-0.047l0 0c-0.012-0.014-0.027-0.025-0.044-0.034l-0.001-0c-0.051-0.021-0.107-0.030-0.162-0.028h-0.141v0.516h0.141zM16.405 2.97h0.39l0.401 1.724h-0.339l-0.079-0.397h-0.348l-0.081 0.397h-0.341l0.399-1.724zM16.74 4.096l-0.137-0.723-0.134 0.725h0.271zM17.519 2.97h0.254l0.484 0.983v-0.981h0.303v1.722h-0.241l-0.489-1.024v1.024h-0.311v-1.724zM19.264 4.036l-0.405-1.065h0.341l0.245 0.683 0.23-0.683h0.333l-0.397 1.067v0.655h-0.35v-0.657zM10.677 5.446v0.090h-0.297v0.702h-0.124v-0.702h-0.299v-0.090h0.719zM11.605 6.238h-0.098c-0.010 0-0.019-0.003-0.026-0.009l0 0c-0.007-0.004-0.013-0.010-0.017-0.017l-0-0-0.085-0.188h-0.41l-0.085 0.188c-0.003 0.008-0.007 0.016-0.013 0.021v0c-0.007 0.004-0.014 0.007-0.023 0.007-0.002 0-0.003-0-0.005-0l0 0h-0.096l0.363-0.789h0.128l0.365 0.787zM11.004 5.943h0.341l-0.145-0.32c-0.009-0.021-0.018-0.046-0.025-0.073l-0.001-0.004-0.015 0.043-0.013 0.034-0.143 0.32zM12.228 6.159h0.068c0.040-0.002 0.078-0.010 0.114-0.022l-0.003 0.001 0.047-0.021v-0.177h-0.145c-0 0-0 0-0.001 0-0.007 0-0.013-0.002-0.019-0.006l0 0c-0.002-0.002-0.003-0.004-0.004-0.006l-0-0-0.002-0.009v-0.060h0.282v0.303c-0.069 0.043-0.152 0.072-0.241 0.079l-0.002 0c-0.036 0.004-0.070 0.006-0.107 0.006-0.064 0-0.124-0.011-0.183-0.030-0.056-0.020-0.104-0.048-0.146-0.084l0.001 0c-0.038-0.034-0.069-0.075-0.091-0.121l-0.001-0.002c-0.023-0.053-0.034-0.109-0.034-0.164-0-0.004-0-0.009-0-0.013 0-0.111 0.050-0.21 0.128-0.276l0.001-0c0.038-0.036 0.090-0.064 0.143-0.083 0.057-0.019 0.122-0.030 0.19-0.030 0.037 0 0.073 0.003 0.108 0.010l-0.004-0.001c0.060 0.009 0.114 0.027 0.163 0.053l-0.003-0.001c0.021 0.011 0.043 0.026 0.064 0.041l-0.036 0.049c-0.003 0.005-0.008 0.008-0.013 0.011l-0 0c-0.004 0.002-0.009 0.004-0.015 0.004h-0c-0.008-0-0.015-0.003-0.022-0.007l0 0c-0.013-0.004-0.023-0.011-0.036-0.019-0.058-0.028-0.125-0.045-0.197-0.045-0.004 0-0.007 0-0.010 0h0.001c-0.002-0-0.005-0-0.007-0-0.048 0-0.094 0.008-0.136 0.022l0.003-0.001c-0.043 0.015-0.077 0.036-0.107 0.064-0.029 0.026-0.052 0.058-0.068 0.094l-0.001 0.002c-0.032 0.085-0.032 0.179 0 0.265 0.050 0.107 0.157 0.18 0.281 0.18 0.014 0 0.027-0.001 0.041-0.003l-0.002 0zM13.385 6.146h0.395v0.092h-0.516v-0.789h0.124l-0.002 0.698zM14.191 6.238h-0.124v-0.789h0.124v0.789zM14.652 5.451c0.009 0.004 0.015 0.009 0.019 0.015l0.529 0.595v-0.617h0.107v0.794h-0.060c-0.011 0-0.019 0-0.028-0.004-0.007-0.004-0.014-0.009-0.019-0.015l-0-0-0.529-0.597v0.617h-0.105v-0.789h0.085zM16.222 5.446v0.085h-0.439v0.262h0.356v0.085h-0.356v0.269h0.439v0.085h-0.567v-0.787h0.567zM3.234 0.567l5.504 1.348v4.727l-5.504-1.348v-4.727zM2.882 0.162v5.363l6.208 1.523v-5.363l-6.21-1.521z"></path>
<path fill="#afb1b8" d="M6.208 9.536l-6.208-1.527v-5.357l6.208 1.523v5.359z"></path>
<path fill="#afb1b8" d="M2.985 0.506l5.431 1.333-2.31 1.993-5.431-1.331 2.31-1.995zM2.882 0.164l-2.882 2.487 6.208 1.523 2.88-2.49-6.208-1.521zM6.558 9.233l2.532-2.187-2.532-0.621v2.807z"></path>
</svg>
