<!-- Generated by IcoMoon.io -->
<svg version="1.1" xmlns="http://www.w3.org/2000/svg" width="64" height="32" viewBox="0 0 64 32">
<title>client-4</title>
<path fill="#2196f3" d="M2.805 2.795c-0.512 0-0.928 0.369-0.928 0.823 0 0.457 0.416 0.823 0.926 0.823 0.512 0 0.928-0.367 0.928-0.823 0-0.454-0.416-0.823-0.926-0.823zM9.643 2.532c-0.002-0.631-0.286-1.237-0.789-1.685-0.499-0.433-1.156-0.698-1.874-0.698-0.006 0-0.012 0-0.017 0h0.001c-0.71 0-1.393 0.252-1.894 0.7-0.476 0.41-0.779 1.010-0.789 1.681l-0 0.002v3.482s5.363-0.531 5.363-3.482zM0 7.157c0 0.439 0.198 0.86 0.548 1.171 0.348 0.302 0.805 0.486 1.305 0.486 0.004 0 0.008 0 0.012-0h-0.001c0.495 0 0.969-0.175 1.318-0.486 0.331-0.286 0.541-0.703 0.548-1.17v-2.423s-3.731 0.369-3.731 2.421zM1.865 7.59c-0.096 0-0.192-0.023-0.271-0.073-0.078-0.046-0.139-0.112-0.178-0.191l-0.001-0.003c-0.023-0.049-0.037-0.106-0.037-0.166 0-0.030 0.003-0.060 0.010-0.088l-0 0.003c0.019-0.085 0.064-0.16 0.134-0.222 0.068-0.060 0.153-0.102 0.246-0.119l0.003-0c0.094-0.015 0.192-0.006 0.282 0.026s0.166 0.087 0.22 0.16c0.051 0.067 0.082 0.151 0.082 0.243 0 0.122-0.055 0.232-0.141 0.305l-0.001 0c-0.047 0.043-0.1 0.073-0.16 0.096-0.060 0.021-0.122 0.032-0.188 0.032zM5.276 6.814v0.911h-0.188v-0.911h0.188zM5.638 7.202v0.147h-0.414v-0.147h0.414zM5.681 6.814v0.147h-0.454v-0.147h0.457zM6.539 7.247v0.043c0 0.070-0.011 0.132-0.028 0.188-0.021 0.055-0.047 0.102-0.081 0.141s-0.075 0.068-0.122 0.087c-0.047 0.021-0.1 0.032-0.158 0.032-0.055 0-0.107-0.011-0.156-0.032-0.047-0.021-0.087-0.049-0.122-0.087-0.036-0.038-0.064-0.085-0.081-0.141-0.018-0.053-0.028-0.114-0.028-0.177 0-0.003 0-0.006 0-0.009v0-0.043c0-0.070 0.009-0.132 0.028-0.188s0.043-0.102 0.079-0.141c0.034-0.038 0.075-0.068 0.122-0.087 0.049-0.021 0.1-0.032 0.158-0.032s0.109 0.011 0.156 0.032c0.049 0.021 0.090 0.049 0.124 0.087s0.062 0.085 0.079 0.141c0.021 0.055 0.030 0.117 0.030 0.186zM6.349 7.29v-0.043c0-0.049-0.004-0.092-0.013-0.128-0.008-0.035-0.021-0.065-0.039-0.093l0.001 0.001c-0.030-0.047-0.082-0.077-0.14-0.077-0.003 0-0.006 0-0.009 0l0-0c-0.002-0-0.004-0-0.006-0-0.058 0-0.11 0.029-0.141 0.074l-0 0.001c-0.013 0.026-0.026 0.058-0.036 0.094-0.008 0.036-0.013 0.077-0.013 0.119 0 0.003 0 0.006 0 0.010v-0 0.043c0 0.049 0.004 0.092 0.013 0.128 0.011 0.038 0.021 0.068 0.041 0.094 0.017 0.026 0.036 0.043 0.062 0.058 0.023 0.013 0.053 0.019 0.085 0.019 0.030 0 0.058-0.006 0.083-0.021 0.025-0.013 0.046-0.032 0.061-0.055l0-0.001c0.017-0.026 0.030-0.055 0.038-0.094 0.009-0.036 0.013-0.079 0.013-0.128zM7.147 7.486c0-0.001 0-0.002 0-0.004 0-0.014-0.002-0.027-0.007-0.040l0 0.001c-0.006-0.015-0.015-0.027-0.028-0.036l-0-0c-0.015-0.013-0.033-0.025-0.052-0.034l-0.001-0.001c-0.025-0.011-0.055-0.023-0.086-0.033l-0.005-0.001-0.117-0.043c-0.037-0.017-0.068-0.037-0.097-0.060l0.001 0.001c-0.028-0.021-0.051-0.049-0.066-0.079-0.016-0.029-0.026-0.064-0.026-0.101 0-0 0-0.001 0-0.001v0c0-0 0-0.001 0-0.001 0-0.037 0.009-0.072 0.026-0.102l-0.001 0.001c0.017-0.032 0.041-0.060 0.070-0.081s0.064-0.041 0.107-0.051c0.039-0.012 0.084-0.018 0.131-0.018 0.065 0 0.127 0.013 0.184 0.036l-0.003-0.001c0.049 0.026 0.087 0.058 0.115 0.1s0.043 0.090 0.043 0.145h-0.188c0-0.002 0-0.005 0-0.007 0-0.023-0.006-0.045-0.015-0.064l0 0.001c-0.012-0.021-0.029-0.038-0.051-0.049l-0.001-0c-0.022-0.011-0.049-0.017-0.077-0.017-0.003 0-0.006 0-0.009 0l0-0c-0.001-0-0.003-0-0.005-0-0.027 0-0.052 0.005-0.076 0.015l0.001-0c-0.020 0.008-0.037 0.021-0.049 0.038l-0 0c-0.011 0.015-0.017 0.034-0.017 0.055 0 0 0 0.001 0 0.001v-0c0 0.015 0.004 0.030 0.013 0.043 0.006 0.013 0.019 0.023 0.034 0.034l0.058 0.032 0.077 0.028c0.049 0.015 0.094 0.032 0.13 0.051 0.038 0.017 0.070 0.038 0.096 0.064 0.047 0.043 0.077 0.105 0.077 0.174 0 0.001 0 0.002-0 0.004v-0c0 0.041-0.009 0.077-0.021 0.107-0.017 0.032-0.038 0.058-0.068 0.081-0.030 0.021-0.064 0.036-0.107 0.049-0.038 0.010-0.082 0.016-0.127 0.016-0.096 0-0.185-0.027-0.262-0.073l0.002 0.001c-0.071-0.049-0.117-0.129-0.117-0.221 0-0.002 0-0.004 0-0.005v0h0.188c0 0.028 0.004 0.053 0.015 0.073 0.009 0.019 0.021 0.034 0.036 0.047s0.034 0.021 0.058 0.026c0.021 0.006 0.047 0.009 0.073 0.009 0.034 0 0.060-0.004 0.081-0.013 0.038-0.014 0.064-0.050 0.064-0.092 0-0.001 0-0.001-0-0.002v0zM7.87 6.814v0.911h-0.19v-0.911h0.188zM8.147 6.814v0.147h-0.74v-0.147h0.742zM8.866 7.578v0.147h-0.482v-0.147h0.484zM8.444 6.814v0.911h-0.188v-0.911h0.188zM8.804 7.185v0.143h-0.422v-0.143h0.422zM8.866 6.814v0.147h-0.484v-0.147h0.484zM8.975 6.814h0.341c0.068 0 0.128 0.011 0.179 0.032 0.049 0.021 0.087 0.051 0.115 0.092 0.028 0.043 0.043 0.092 0.043 0.149 0 0.051-0.011 0.092-0.028 0.128-0.015 0.034-0.038 0.064-0.068 0.085-0.030 0.023-0.064 0.043-0.107 0.055l-0.058 0.032h-0.294v-0.147h0.218c0.002 0 0.004 0 0.006 0 0.027 0 0.053-0.006 0.076-0.018l-0.001 0c0.021-0.011 0.038-0.028 0.049-0.049 0.011-0.020 0.017-0.044 0.017-0.069 0-0.001 0-0.002-0-0.003v0c0-0.002 0-0.004 0-0.006 0-0.025-0.006-0.049-0.015-0.070l0 0.001c-0.011-0.022-0.029-0.039-0.051-0.049l-0.001-0c-0.023-0.011-0.049-0.017-0.077-0.017-0.002 0-0.004 0-0.007 0h-0.149v0.764h-0.19v-0.911zM9.485 7.725l-0.207-0.405 0.196-0.002 0.211 0.399v0.009h-0.201zM10.468 7.401h-0.228v-0.147h0.23c0.036 0 0.064-0.006 0.087-0.017 0.021-0.013 0.041-0.030 0.049-0.051 0.011-0.021 0.017-0.043 0.017-0.070s-0.006-0.054-0.018-0.078l0 0.001c-0.011-0.023-0.028-0.042-0.049-0.055l-0.001-0c-0.023-0.013-0.051-0.021-0.081-0.021-0.002 0-0.003 0-0.005 0h-0.168v0.764h-0.188v-0.911h0.354c0.073 0 0.132 0.013 0.183 0.038 0.094 0.046 0.158 0.141 0.158 0.25 0 0.003-0 0.007-0 0.010v-0c0 0.060-0.013 0.111-0.041 0.154-0.026 0.043-0.064 0.075-0.117 0.098-0.051 0.023-0.111 0.036-0.183 0.036zM11.55 7.578v0.147h-0.484v-0.147h0.484zM11.127 6.814v0.911h-0.188v-0.911h0.188zM11.488 7.185v0.143h-0.422v-0.143h0.422zM11.55 6.814v0.147h-0.484v-0.147h0.484zM12.079 6.814v0.911h-0.188v-0.911h0.188zM12.358 6.814v0.147h-0.742v-0.147h0.742zM13.077 7.578v0.147h-0.484v-0.147h0.484zM12.653 6.814v0.911h-0.188v-0.911h0.188zM13.013 7.185v0.143h-0.42v-0.143h0.42zM13.077 6.814v0.147h-0.484v-0.147h0.482zM13.184 6.814h0.341c0.070 0 0.128 0.011 0.179 0.032s0.090 0.051 0.115 0.092c0.028 0.043 0.043 0.092 0.043 0.149 0 0.051-0.009 0.092-0.026 0.128-0.017 0.034-0.041 0.064-0.070 0.085-0.030 0.023-0.064 0.043-0.105 0.055l-0.058 0.032h-0.297v-0.147h0.218c0.002 0 0.005 0 0.008 0 0.027 0 0.053-0.006 0.076-0.018l-0.001 0c0.021-0.011 0.038-0.028 0.049-0.049 0.011-0.020 0.017-0.044 0.017-0.069 0-0.001 0-0.002-0-0.003v0c0-0.001 0-0.001 0-0.002 0-0.027-0.006-0.052-0.018-0.074l0 0.001c-0.011-0.021-0.028-0.038-0.048-0.049l-0.001-0c-0.023-0.011-0.049-0.017-0.077-0.017-0.003 0-0.006 0-0.009 0h-0.149v0.764h-0.188v-0.911zM13.696 7.725l-0.209-0.405 0.198-0.002 0.209 0.399v0.009h-0.201zM14.479 7.486c0-0.001 0-0.002 0-0.004 0-0.014-0.002-0.027-0.007-0.040l0 0.001c-0.006-0.015-0.015-0.027-0.028-0.036l-0-0c-0.015-0.013-0.033-0.025-0.052-0.034l-0.001-0.001c-0.025-0.011-0.055-0.023-0.086-0.033l-0.005-0.001-0.117-0.043c-0.037-0.017-0.068-0.037-0.097-0.060l0.001 0.001c-0.028-0.021-0.051-0.049-0.066-0.079-0.015-0.028-0.024-0.062-0.024-0.097 0-0.002 0-0.004 0-0.005v0c-0-0.002-0-0.003-0-0.005 0-0.036 0.009-0.069 0.024-0.099l-0.001 0.001c0.017-0.032 0.041-0.060 0.070-0.081s0.064-0.041 0.107-0.051c0.039-0.012 0.084-0.018 0.131-0.018 0.065 0 0.127 0.013 0.184 0.036l-0.003-0.001c0.049 0.026 0.087 0.058 0.115 0.1s0.043 0.090 0.043 0.145h-0.186c0-0.001 0-0.002 0-0.003 0-0.025-0.006-0.048-0.017-0.068l0 0.001c-0.012-0.021-0.029-0.038-0.051-0.049l-0.001-0c-0.022-0.011-0.049-0.017-0.077-0.017-0.002 0-0.005 0-0.007 0h0c-0.002-0-0.004-0-0.007-0-0.027 0-0.053 0.006-0.076 0.016l0.001-0c-0.020 0.008-0.037 0.021-0.049 0.038l-0 0c-0.011 0.015-0.017 0.034-0.017 0.055 0 0 0 0.001 0 0.001v-0c0 0.015 0.004 0.030 0.013 0.043 0.006 0.013 0.019 0.023 0.034 0.034l0.058 0.032 0.077 0.028c0.051 0.015 0.094 0.032 0.132 0.051 0.036 0.017 0.068 0.038 0.094 0.064 0.047 0.043 0.077 0.105 0.077 0.174 0 0.001 0 0.002-0 0.004v-0c0 0.041-0.006 0.077-0.021 0.107-0.017 0.032-0.038 0.058-0.068 0.081-0.030 0.021-0.064 0.036-0.105 0.049-0.038 0.011-0.083 0.017-0.128 0.017-0.096 0-0.186-0.027-0.262-0.073l0.002 0.001c-0.071-0.049-0.117-0.129-0.117-0.221 0-0.002 0-0.004 0-0.005v0h0.19c0 0.028 0.004 0.053 0.013 0.073s0.021 0.034 0.036 0.047c0.017 0.013 0.036 0.021 0.058 0.026 0.021 0.006 0.047 0.009 0.073 0.009 0.034 0 0.060-0.004 0.081-0.013 0.038-0.014 0.064-0.050 0.064-0.092 0-0.001 0-0.001-0-0.002v0z"></path>
</svg>
