<!-- Generated by IcoMoon.io -->
<svg version="1.1" xmlns="http://www.w3.org/2000/svg" width="64" height="32" viewBox="0 0 64 32">
<title>client-2</title>
<path fill="#afb1b8" d="M3.65 0.625h-0.028l-0.134-0.004h-0.098c-0.006-0-0.014-0-0.021-0-0.090 0-0.18 0.002-0.269 0.007l0.012-0c-0.777 0.043-1.536 0.239-2.242 0.572l-0.092 0.045v4.723l0.215-0.073c0.692-0.249 1.489-0.397 2.321-0.407l0.005-0v0.621l-0.226 0.006h-0.017c-1.076 0.060-2.070 0.357-2.948 0.839l0.036-0.018v-6.061c0.478-0.283 1.032-0.514 1.618-0.663l0.044-0.009c0.469-0.126 1.007-0.2 1.562-0.203h0.093c0.389 0.001 0.766 0.052 1.126 0.146l-0.031-0.007v0.612c-0.217-0.054-0.475-0.095-0.739-0.114l-0.016-0.001h-0.015c-0.053-0.004-0.107-0.011-0.156-0.011zM4.725 1.25c0.121 0.008 0.261 0.012 0.403 0.012 0.59 0 1.162-0.076 1.706-0.219l-0.047 0.010c0.601-0.153 1.128-0.364 1.618-0.634l-0.035 0.018v5.95c-0.478 0.284-1.032 0.516-1.618 0.667l-0.044 0.010c-0.512 0.13-1.037 0.198-1.564 0.201-0.011 0-0.024 0-0.036 0-0.409 0-0.806-0.051-1.185-0.148l0.033 0.007v-5.988c0.221 0.054 0.484 0.095 0.752 0.114l0.016 0.001zM7.755 1.297l-0.215 0.073c-0.716 0.258-1.543 0.407-2.405 0.407-0.135 0-0.269-0.004-0.402-0.011l0.019 0.001-0.175-0.011v4.858l0.149 0.013c0.123 0.009 0.267 0.015 0.413 0.015 0.505 0 0.995-0.065 1.462-0.188l-0.040 0.009c0.422-0.109 0.789-0.245 1.136-0.414l-0.035 0.015 0.094-0.043v-4.723z"></path>
<path fill="#afb1b8" d="M0.585 9.005c-0.058-0.059-0.139-0.096-0.229-0.096-0.004 0-0.009 0-0.013 0l0.001-0c-0.047 0-0.094 0.009-0.139 0.026-0.12 0.048-0.203 0.163-0.203 0.298 0 0.006 0 0.011 0 0.017l-0-0.001v0.811c0 0.055 0.009 0.113 0.032 0.164 0.021 0.043 0.047 0.079 0.081 0.109 0.032 0.028 0.070 0.047 0.111 0.058s0.081 0.017 0.122 0.017c0.186-0.004 0.335-0.155 0.335-0.341 0-0 0-0 0-0v0-0.090h-0.213v0.070c0.002 0.026 0 0.051-0.011 0.073-0.007 0.018-0.017 0.034-0.030 0.047v0c-0.024 0.018-0.054 0.029-0.087 0.030h-0c-0.004 0.001-0.009 0.001-0.014 0.001-0.035 0-0.066-0.017-0.086-0.043l-0-0c-0.019-0.029-0.030-0.065-0.030-0.103 0-0.002 0-0.004 0-0.006v0-0.755c0-0.043 0.009-0.083 0.028-0.119 0.019-0.030 0.052-0.050 0.090-0.050 0.004 0 0.009 0 0.013 0.001l-0.001-0c0.001-0 0.002-0 0.004-0 0.037 0 0.069 0.018 0.090 0.045l0 0c0.023 0.029 0.036 0.065 0.036 0.105 0 0.001 0 0.001 0 0.002v-0 0.073h0.209v-0.083c0-0.001 0-0.002 0-0.003 0-0.097-0.036-0.186-0.096-0.254l0 0zM1.841 8.996c-0.065-0.054-0.149-0.088-0.242-0.088-0.045 0-0.088 0.008-0.128 0.022l0.003-0.001c-0.043 0.015-0.079 0.036-0.111 0.064-0.036 0.034-0.064 0.073-0.083 0.115-0.021 0.049-0.032 0.102-0.030 0.158v0.774c-0.002 0.055 0.009 0.109 0.030 0.16 0.019 0.043 0.047 0.079 0.083 0.107 0.032 0.032 0.068 0.055 0.111 0.070 0.037 0.014 0.081 0.022 0.126 0.022s0.088-0.008 0.128-0.023l-0.003 0.001c0.132-0.046 0.225-0.169 0.225-0.313 0-0.008-0-0.015-0.001-0.023l0 0.001v-0.777c0-0.005 0-0.010 0-0.015 0-0.101-0.043-0.192-0.111-0.256l-0-0zM1.743 10.042c0 0.004 0.001 0.008 0.001 0.012 0 0.040-0.017 0.075-0.043 0.101l-0 0c-0.027 0.022-0.061 0.036-0.099 0.036s-0.072-0.013-0.099-0.036l0 0c-0.027-0.025-0.043-0.061-0.043-0.101 0-0.004 0-0.009 0.001-0.013l-0 0.001v-0.774c-0-0.004-0.001-0.008-0.001-0.012 0-0.040 0.017-0.075 0.043-0.101l0-0c0.027-0.022 0.061-0.036 0.099-0.036s0.072 0.013 0.099 0.036l-0-0c0.027 0.025 0.043 0.061 0.043 0.101 0 0.004-0 0.009-0.001 0.013l0-0.001v0.774zM3.492 10.389v-1.472h-0.205l-0.267 0.779h-0.004l-0.269-0.779h-0.201v1.47h0.209v-0.896h0.004l0.205 0.634h0.107l0.207-0.631h0.002v0.894h0.211zM4.685 9.024c-0.032-0.038-0.073-0.064-0.119-0.081-0.044-0.015-0.094-0.024-0.146-0.024-0.002 0-0.004 0-0.006 0h-0.311v1.47h0.209v-0.576h0.107c0.066 0.004 0.13-0.009 0.19-0.038 0.085-0.053 0.144-0.139 0.162-0.239l0-0.002c0.008-0.049 0.013-0.106 0.013-0.164 0-0.075-0.008-0.148-0.023-0.218l0.001 0.007c-0.014-0.053-0.041-0.099-0.077-0.137l0 0zM4.578 9.472c-0.002 0.026-0.009 0.051-0.021 0.075-0.013 0.021-0.030 0.043-0.053 0.051-0.027 0.014-0.059 0.021-0.093 0.021-0.002 0-0.004-0-0.005-0h-0.096v-0.501h0.107c0.034 0 0.064 0.004 0.096 0.019 0.021 0.011 0.038 0.030 0.049 0.053s0.017 0.052 0.017 0.081v0.201zM5.675 8.919h-0.171l-0.32 1.47h0.209l0.062-0.316h0.284l0.064 0.316h0.207l-0.331-1.47zM5.483 9.873l0.105-0.533h0.002l0.102 0.533h-0.209zM7.029 9.805h-0.004l-0.316-0.885h-0.201v1.47h0.209v-0.883h0.004l0.318 0.883h0.196v-1.472h-0.209v0.885zM8.309 8.919l-0.171 0.585h-0.002l-0.171-0.585h-0.22l0.288 0.849v0.619h0.209v-0.619l0.288-0.849h-0.222zM0 10.803h0.1v0.284h0.070v-0.284h0.1v-0.058h-0.271v0.058zM0.849 10.746l-0.132 0.341h0.073l0.028-0.077h0.137l0.028 0.077h0.075l-0.134-0.341h-0.073zM0.838 10.953l0.045-0.128 0.047 0.128h-0.092zM1.685 10.961h0.081v0.043c-0.022 0.018-0.050 0.029-0.081 0.030h-0c-0.002 0-0.004 0-0.006 0-0.027 0-0.051-0.012-0.067-0.032l-0-0c-0.016-0.023-0.026-0.051-0.026-0.082 0-0.003 0-0.005 0-0.008l-0 0c0-0.075 0.032-0.113 0.098-0.113 0.002-0 0.004-0 0.007-0 0.033 0 0.061 0.023 0.070 0.053l0 0.001 0.068-0.013c-0.015-0.066-0.064-0.1-0.145-0.1-0.002-0-0.004-0-0.006-0-0.043 0-0.083 0.016-0.113 0.043l0-0c-0.031 0.030-0.050 0.072-0.050 0.119 0 0.005 0 0.010 0.001 0.014l-0-0.001c0 0.047 0.013 0.094 0.043 0.128 0.030 0.032 0.073 0.052 0.12 0.052 0.003 0 0.007-0 0.010-0l-0 0c0.053 0 0.107-0.019 0.145-0.055v-0.134h-0.149v0.058zM2.543 10.746h-0.068v0.341h0.239v-0.058h-0.171v-0.284zM3.268 10.746h-0.070v0.341h0.070v-0.341zM3.977 10.974l-0.141-0.228h-0.066v0.341h0.064v-0.222l0.137 0.222h0.068v-0.341h-0.064v0.228zM4.617 10.938h0.171v-0.058h-0.171v-0.077h0.181v-0.058h-0.252v0.341h0.26v-0.058h-0.192v-0.092zM6.167 10.88h-0.134v-0.134h-0.068v0.341h0.068v-0.149h0.134v0.149h0.068v-0.341h-0.068v0.134zM6.812 10.938h0.171v-0.058h-0.171v-0.077h0.183v-0.058h-0.252v0.341h0.258v-0.058h-0.19v-0.092zM7.684 10.938c0.060-0.011 0.090-0.043 0.090-0.096 0-0.003 0.001-0.006 0.001-0.010 0-0.027-0.013-0.050-0.032-0.065l-0-0c-0.026-0.014-0.056-0.022-0.089-0.022-0.004 0-0.008 0-0.012 0l0.001-0h-0.145v0.341h0.068v-0.143h0.013c0.015 0 0.030 0.002 0.043 0.009 0.011 0.006 0.021 0.015 0.026 0.026l0.075 0.107h0.081l-0.043-0.064c-0.017-0.034-0.043-0.064-0.075-0.085zM7.616 10.891h-0.051v-0.085h0.053c0.023-0.002 0.049 0 0.070 0.006 0.011 0.008 0.018 0.020 0.018 0.034s-0.008 0.028-0.019 0.036l-0 0c-0.017 0.006-0.037 0.009-0.058 0.009-0.004 0-0.009-0-0.013-0l0.001 0zM8.343 10.938h0.171v-0.058h-0.171v-0.077h0.183v-0.058h-0.252v0.341h0.258v-0.058h-0.19v-0.092z"></path>
</svg>
