<!-- Generated by IcoMoon.io -->
<svg version="1.1" xmlns="http://www.w3.org/2000/svg" width="64" height="32" viewBox="0 0 64 32">
<title>client-3</title>
<path fill="#afb1b8" d="M1.579 8.768l0.011 0.002 0.009 0.004 0.047 0.045c-0.036 0.036-0.081 0.064-0.13 0.085-0.060 0.021-0.124 0.032-0.186 0.030-0.060 0-0.119-0.009-0.175-0.028-0.098-0.034-0.176-0.107-0.215-0.2l-0.001-0.002c-0.020-0.047-0.032-0.102-0.032-0.159s0.012-0.112 0.033-0.162l-0.001 0.003c0.021-0.045 0.051-0.087 0.092-0.124 0.038-0.034 0.085-0.062 0.139-0.079 0.054-0.019 0.116-0.031 0.18-0.031 0.060 0 0.117 0.010 0.171 0.027l-0.004-0.001c0.045 0.017 0.087 0.043 0.124 0.073l-0.038 0.047c-0.003 0.003-0.006 0.006-0.010 0.008l-0 0c-0.004 0.003-0.009 0.004-0.015 0.004-0 0-0 0-0 0v0c-0.006-0.001-0.012-0.003-0.017-0.006l0 0-0.021-0.013-0.028-0.015c-0.043-0.022-0.093-0.034-0.147-0.034-0.005 0-0.011 0-0.016 0l0.001-0c-0.043 0-0.087 0.006-0.128 0.021-0.076 0.026-0.136 0.082-0.166 0.154l-0.001 0.002c-0.016 0.036-0.025 0.079-0.026 0.124v0c0 0.043 0.009 0.087 0.023 0.128 0.029 0.073 0.088 0.128 0.16 0.153l0.002 0.001c0.038 0.013 0.079 0.021 0.119 0.021l0.070-0.004c0.059-0.006 0.112-0.030 0.154-0.066l-0 0c0.006-0.005 0.013-0.008 0.021-0.009h0zM2.923 8.544c0 0.055-0.009 0.107-0.030 0.158-0.021 0.045-0.049 0.085-0.087 0.122-0.041 0.036-0.085 0.064-0.139 0.081-0.113 0.038-0.239 0.038-0.354 0-0.053-0.019-0.098-0.047-0.137-0.081l0 0c-0.037-0.034-0.066-0.075-0.087-0.121l-0.001-0.002c-0.043-0.1-0.043-0.213 0-0.314 0.021-0.047 0.049-0.087 0.087-0.124 0.041-0.034 0.085-0.060 0.137-0.079 0.053-0.018 0.114-0.029 0.177-0.029s0.124 0.011 0.181 0.030l-0.004-0.001c0.051 0.019 0.098 0.047 0.139 0.081 0.072 0.067 0.118 0.162 0.118 0.267 0 0.004-0 0.009-0 0.013l0-0.001zM2.801 8.544c0-0.043-0.006-0.085-0.021-0.126-0.028-0.072-0.086-0.128-0.158-0.153l-0.002-0.001c-0.038-0.013-0.082-0.021-0.128-0.021s-0.090 0.008-0.131 0.021l0.003-0.001c-0.039 0.013-0.072 0.034-0.1 0.060l0-0c-0.027 0.026-0.049 0.057-0.063 0.092l-0.001 0.002c-0.028 0.083-0.028 0.171 0 0.254 0.028 0.073 0.087 0.129 0.16 0.153l0.002 0.001c0.083 0.026 0.175 0.026 0.256 0 0.038-0.015 0.073-0.034 0.1-0.060 0.028-0.028 0.049-0.060 0.062-0.094 0.015-0.043 0.021-0.085 0.021-0.128zM3.84 8.676l0.013 0.030 0.013-0.030 0.015-0.028 0.299-0.469c0.004-0.006 0.011-0.013 0.015-0.013 0.008-0.003 0.016-0.004 0.026-0.004v0h0.087v0.764h-0.105v-0.61l-0.299 0.476c-0.004 0.007-0.010 0.013-0.017 0.017l-0 0c-0.007 0.004-0.016 0.006-0.025 0.006-0 0-0 0-0 0v0h-0.017c-0 0-0.001 0-0.001 0-0.009 0-0.018-0.002-0.025-0.007l0 0c-0.007-0.004-0.013-0.010-0.017-0.017l-0-0-0.307-0.48v0.614h-0.102v-0.764h0.090c0.009 0 0.015 0 0.023 0.004 0.006 0.002 0.013 0.006 0.017 0.013l0.303 0.469 0.015 0.028zM4.958 8.64v0.286h-0.115v-0.764h0.258c0.049 0 0.098 0.006 0.145 0.017 0.038 0.009 0.073 0.026 0.102 0.047 0.026 0.021 0.047 0.047 0.060 0.075 0.013 0.032 0.021 0.064 0.019 0.098 0 0.001 0 0.001 0 0.002 0 0.070-0.033 0.131-0.085 0.17l-0.001 0c-0.030 0.023-0.064 0.043-0.102 0.051-0.041 0.012-0.088 0.019-0.136 0.019-0.002 0-0.003 0-0.005-0h0l-0.141-0.002zM4.958 8.557h0.141c0.032 0 0.062-0.002 0.092-0.011 0.025-0.008 0.046-0.019 0.064-0.034l-0 0c0.033-0.027 0.053-0.068 0.053-0.113 0-0.001 0-0.001 0-0.002v0c0-0.002 0-0.005 0-0.008 0-0.019-0.004-0.037-0.011-0.053l0 0.001c-0.010-0.021-0.025-0.039-0.042-0.053l-0-0c-0.043-0.030-0.098-0.043-0.156-0.041h-0.141v0.314zM6.522 8.926h-0.092c-0.001 0-0.002 0-0.003 0-0.008 0-0.016-0.002-0.023-0.007l0 0c-0.006-0.004-0.011-0.010-0.015-0.017l-0-0-0.079-0.186h-0.397l-0.083 0.186c-0.007 0.015-0.022 0.026-0.039 0.026-0.001 0-0.002-0-0.004-0h-0.089l0.35-0.766h0.122l0.352 0.764zM5.946 8.642h0.329l-0.139-0.309c-0.009-0.020-0.018-0.044-0.025-0.069l-0.001-0.004-0.013 0.041-0.013 0.032-0.139 0.309zM7.025 8.166l0.017 0.013 0.51 0.576v-0.593h0.102v0.764h-0.058c-0.009 0-0.017 0-0.023-0.004-0.008-0.004-0.014-0.009-0.019-0.015l-0-0-0.508-0.576v0.595h-0.105v-0.764h0.064c0.004 0 0.013 0 0.019 0.004zM8.512 8.623v0.303h-0.115v-0.303l-0.322-0.461h0.105c0.001-0 0.002-0 0.003-0 0.008 0 0.016 0.002 0.023 0.007l-0-0 0.015 0.017 0.201 0.299c0.013 0.019 0.025 0.041 0.035 0.063l0.001 0.003 0.015-0.032 0.021-0.034 0.196-0.299c0.004-0.007 0.009-0.012 0.015-0.017l0-0c0.007-0.005 0.015-0.009 0.024-0.009 0.001 0 0.001 0 0.002 0h0.107l-0.324 0.463zM3.782 6.882l0.154 0.013c0.779-0.299 1.426-0.793 1.901-1.425l0.008-0.011c0.424-0.565 0.679-1.278 0.679-2.051 0-0.022-0-0.043-0.001-0.064l0 0.003-0.866-0.751c0.177 0.796 0.094 1.617-0.237 2.374-0.363 0.793-0.924 1.442-1.622 1.901l-0.017 0.010z"></path>
<path fill="#afb1b8" d="M3.473 6.848l0.023 0.002c0.789-0.491 1.393-1.175 1.728-1.969 0.191-0.432 0.302-0.935 0.302-1.464 0-0.359-0.051-0.706-0.147-1.034l0.006 0.026-1.233-1.069c0.384 0.657 0.611 1.446 0.611 2.289 0 0.193-0.012 0.384-0.035 0.571l0.002-0.022c-0.14 1.041-0.594 1.958-1.261 2.672l0.003-0.003zM7.652 4.23c-0.24 0.871-0.753 1.598-1.44 2.102l-0.011 0.008c-0.213 0.162-0.444 0.305-0.687 0.429 0.595-0.151 1.143-0.42 1.6-0.785 0.441-0.35 0.793-0.793 1.028-1.301l0.009-0.022-0.499-0.431z"></path>
<path fill="#afb1b8" d="M7.456 4.109l-0.713-0.619c-0.019 0.751-0.266 1.44-0.675 2.005l0.007-0.010c-0.445 0.613-1.032 1.098-1.714 1.412l-0.027 0.011h0.004c0.16 0 0.32-0.009 0.478-0.023 0.677-0.239 1.253-0.615 1.72-1.097l0.001-0.001c0.437-0.452 0.758-1.019 0.912-1.652l0.005-0.025zM3.578 0.887l-0.849-0.738c-0.758 0.249-1.394 0.695-1.87 1.277l-0.006 0.007c-0.435 0.537-0.701 1.227-0.708 1.978v0.002c0.011 0.833 0.336 1.588 0.862 2.155l-0.002-0.002c0.571 0.615 1.324 1.055 2.172 1.235l0.027 0.005c0.736-0.759 1.217-1.769 1.3-2.89l0.001-0.015c0.005-0.077 0.007-0.166 0.007-0.257 0-1.042-0.352-2.001-0.943-2.766l0.008 0.010zM9.417 3.996c-0.002-0.928-0.427-1.813-1.182-2.47-0.754-0.638-1.737-1.026-2.811-1.026-0.011 0-0.022 0-0.032 0h0.002c-0.493 0-0.981 0.079-1.442 0.235l5.197 4.512c0.169-0.367 0.268-0.797 0.269-1.25v-0z"></path>
</svg>
