<!-- Generated by IcoMoon.io -->
<svg version="1.1" xmlns="http://www.w3.org/2000/svg" width="64" height="32" viewBox="0 0 64 32">
<title>client-1</title>
<path fill="#afb1b8" d="M1.28 0l1.493 1.414h-2.773v6.863h7.253v-2.624l1.493 1.412v-7.066h-7.467zM7.189 5.489l-4.243-4.013h4.243v4.011zM5.871 7.277h-4.723v-4.619h0.335v4.305h4.388v0.314zM2.263 9.195l-0.175 0.358-0.175-0.358h-0.143l0.256 0.48v0.277h0.13v-0.277l0.256-0.48h-0.149zM2.483 9.952l0.060-0.175h0.294l0.064 0.175h0.137l-0.288-0.757h-0.117l-0.288 0.757h0.139zM2.69 9.355l0.111 0.316h-0.22l0.109-0.316zM3.386 9.653c-0.017 0.026-0.028 0.059-0.028 0.093 0 0 0 0 0 0.001v-0c0 0.064 0.021 0.117 0.066 0.156 0.045 0.041 0.107 0.060 0.181 0.060s0.139-0.021 0.192-0.060l0.043 0.049h0.149l-0.113-0.13c0.043-0.060 0.064-0.137 0.064-0.23h-0.107c0 0.051-0.013 0.098-0.034 0.139l-0.145-0.171 0.051-0.041c0.036-0.026 0.064-0.051 0.079-0.079 0.015-0.024 0.023-0.054 0.023-0.085 0-0.048-0.020-0.091-0.053-0.122l-0-0c-0.034-0.030-0.079-0.049-0.128-0.049-0.002 0-0.004 0-0.006 0h0c-0.004-0-0.008-0-0.012-0-0.052 0-0.099 0.020-0.135 0.052l0-0c-0.033 0.034-0.054 0.080-0.054 0.13 0 0.004 0 0.007 0 0.011l-0-0.001c0 0.026 0.006 0.051 0.017 0.077s0.032 0.058 0.062 0.094c-0.044 0.029-0.082 0.065-0.112 0.105l-0.001 0.001zM3.727 9.82c-0.032 0.026-0.074 0.042-0.119 0.043h-0c-0.002 0-0.004 0-0.006 0-0.032 0-0.061-0.012-0.083-0.032l0 0c-0.021-0.021-0.034-0.049-0.034-0.081 0-0.002 0-0.003 0-0.005v0c0-0.043 0.021-0.077 0.064-0.109l0.015-0.013 0.164 0.196zM3.593 9.483c-0.036-0.043-0.053-0.079-0.053-0.109 0-0.026 0.006-0.047 0.021-0.064 0.014-0.014 0.033-0.024 0.054-0.024 0.001 0 0.002 0 0.003 0h-0c0.023 0 0.043 0.006 0.058 0.021 0.015 0.013 0.021 0.030 0.021 0.049 0 0.030-0.011 0.055-0.032 0.075l-0.015 0.013-0.058 0.038zM4.826 9.897c0.053-0.047 0.083-0.109 0.090-0.192h-0.13c-0.006 0.055-0.023 0.094-0.049 0.117-0.028 0.023-0.064 0.034-0.117 0.034-0.002 0-0.004 0-0.006 0-0.050 0-0.095-0.025-0.121-0.064l-0-0.001c-0.030-0.043-0.045-0.107-0.045-0.188v-0.066c0-0.081 0.015-0.143 0.047-0.183 0.030-0.043 0.075-0.064 0.132-0.064 0.049 0 0.085 0.013 0.111 0.036s0.043 0.064 0.049 0.117h0.13c-0.004-0.076-0.037-0.143-0.087-0.192l-0-0c-0.050-0.043-0.116-0.069-0.188-0.069-0.005 0-0.010 0-0.015 0l0.001-0c-0.064 0-0.117 0.015-0.164 0.043-0.047 0.032-0.085 0.073-0.109 0.128-0.026 0.053-0.038 0.117-0.038 0.188v0.073c0 0.068 0.013 0.13 0.038 0.183s0.060 0.094 0.107 0.122c0.047 0.030 0.1 0.043 0.16 0.043 0.085 0 0.156-0.021 0.207-0.066zM5.6 9.79c0.026-0.058 0.038-0.122 0.038-0.196v-0.043c0-0.075-0.013-0.139-0.038-0.192-0.046-0.104-0.148-0.175-0.266-0.175-0.004 0-0.008 0-0.011 0l0.001-0c-0.060 0-0.115 0.015-0.162 0.045-0.049 0.030-0.085 0.075-0.111 0.13-0.026 0.058-0.041 0.122-0.041 0.196v0.043c0 0.073 0.015 0.137 0.041 0.192s0.064 0.098 0.111 0.128c0.049 0.030 0.105 0.045 0.164 0.045 0.064 0 0.117-0.015 0.166-0.043 0.047-0.032 0.085-0.075 0.109-0.13zM5.459 9.361c0.032 0.043 0.049 0.109 0.049 0.192v0.041c0 0.085-0.017 0.149-0.049 0.194-0.028 0.040-0.074 0.066-0.126 0.066-0.003 0-0.006-0-0.008-0l0 0c-0.002 0-0.004 0-0.006 0-0.053 0-0.1-0.026-0.128-0.066l-0-0c-0.031-0.050-0.050-0.11-0.050-0.174 0-0.007 0-0.014 0.001-0.021l-0 0.001v-0.043c0-0.083 0.017-0.145 0.049-0.192 0.029-0.039 0.074-0.064 0.126-0.064 0.003 0 0.006 0 0.009 0l-0-0c0.058 0 0.102 0.021 0.134 0.064z"></path>
</svg>
