<!-- Generated by IcoMoon.io -->
<svg version="1.1" xmlns="http://www.w3.org/2000/svg" width="64" height="32" viewBox="0 0 64 32">
<title>insta-footer</title>
<path fill="#fff" d="M4.262 1.254c-0.003-0.187-0.039-0.365-0.102-0.529l0.004 0.011c-0.057-0.148-0.141-0.274-0.247-0.377l-0-0c-0.107-0.107-0.235-0.192-0.378-0.245-0.154-0.060-0.331-0.096-0.517-0.1l-0.002-0c-0.194-0.009-0.422-0.015-0.651-0.015-0.080 0-0.16 0.001-0.24 0.002l0.012-0c-0.58 0-0.653 0.002-0.879 0.013-0.228 0.009-0.384 0.047-0.518 0.098-0.143 0.055-0.271 0.139-0.378 0.247-0.109 0.107-0.192 0.235-0.247 0.378-0.059 0.154-0.095 0.331-0.098 0.517l-0 0.001c-0.009 0.194-0.015 0.422-0.015 0.651 0 0.080 0.001 0.16 0.002 0.24l-0-0.012c0 0.58 0 0.653 0.011 0.879 0.004 0.187 0.040 0.365 0.104 0.529l-0.004-0.011c0.053 0.143 0.139 0.271 0.247 0.378 0.107 0.109 0.235 0.192 0.378 0.247 0.134 0.051 0.29 0.087 0.516 0.098 0.228 0.011 0.299 0.013 0.879 0.013s0.653-0.002 0.881-0.013c0.186-0.003 0.363-0.039 0.527-0.102l-0.011 0.004c0.288-0.113 0.512-0.337 0.622-0.618l0.003-0.007c0.051-0.137 0.090-0.29 0.098-0.518 0.011-0.226 0.013-0.299 0.013-0.879 0-0.578 0-0.651-0.011-0.879zM3.878 2.997c-0.009 0.207-0.043 0.32-0.073 0.395-0.074 0.187-0.219 0.332-0.401 0.404l-0.005 0.002c-0.075 0.030-0.19 0.064-0.397 0.073-0.224 0.011-0.292 0.013-0.862 0.013-0.062 0.001-0.135 0.001-0.208 0.001-0.23 0-0.458-0.005-0.686-0.015l0.032 0.001c-0.209-0.009-0.32-0.043-0.395-0.073-0.096-0.036-0.178-0.091-0.245-0.16l-0-0c-0.069-0.067-0.123-0.148-0.158-0.239l-0.002-0.005c-0.045-0.118-0.071-0.254-0.073-0.396v-0.001c-0.009-0.195-0.014-0.424-0.014-0.654 0-0.073 0.001-0.146 0.002-0.219l-0 0.011c0-0.57 0.002-0.638 0.013-0.862 0.009-0.209 0.043-0.32 0.073-0.397 0.034-0.092 0.087-0.175 0.16-0.243 0.067-0.069 0.149-0.124 0.241-0.158l0.005-0.002c0.075-0.030 0.188-0.064 0.397-0.073 0.224-0.011 0.292-0.013 0.86-0.013 0.572 0 0.64 0 0.862 0.013 0.209 0.009 0.32 0.043 0.397 0.073 0.092 0.034 0.177 0.087 0.245 0.16 0.070 0.068 0.126 0.151 0.16 0.243 0.028 0.077 0.064 0.19 0.073 0.397 0.011 0.224 0.013 0.292 0.013 0.862s-0.002 0.636-0.013 0.862z"></path>
<path fill="#fff" d="M2.142 1.037c-0.606 0-1.097 0.491-1.097 1.097s0.491 1.097 1.097 1.097v0c0.606 0 1.097-0.491 1.097-1.097s-0.491-1.097-1.097-1.097v0zM2.142 2.844c-0.392 0-0.71-0.318-0.71-0.71s0.318-0.71 0.71-0.71v0c0.392 0 0.71 0.318 0.71 0.71s-0.318 0.71-0.71 0.71v0zM3.537 0.994c0 0.141-0.115 0.256-0.256 0.256s-0.256-0.115-0.256-0.256v0c0-0.141 0.115-0.256 0.256-0.256s0.256 0.115 0.256 0.256v0z"></path>
</svg>
