<!-- Generated by IcoMoon.io -->
<svg version="1.1" xmlns="http://www.w3.org/2000/svg" width="64" height="32" viewBox="0 0 64 32">
<title>linkedin-footer</title>
<path fill="#fff" d="M4.267 4.267v-1.566c0-0.764-0.164-1.355-1.060-1.355-0.010-0-0.022-0.001-0.034-0.001-0.341 0-0.638 0.184-0.8 0.457l-0.002 0.004h-0.013v-0.388h-0.849v2.848h0.885v-1.41c0-0.371 0.070-0.732 0.529-0.732 0.454 0 0.461 0.425 0.461 0.755v1.387h0.883zM0.070 1.419h0.885v2.848h-0.885v-2.848zM0.512 0c-0.283 0-0.512 0.229-0.512 0.512v0c0 0.001 0 0.001 0 0.002 0 0.284 0.229 0.514 0.512 0.516h0c0.284 0 0.512-0.235 0.512-0.518s-0.229-0.512-0.512-0.512v0z"></path>
</svg>
