<!-- Generated by IcoMoon.io -->
<svg version="1.1" xmlns="http://www.w3.org/2000/svg" width="64" height="32" viewBox="0 0 64 32">
<title>mail</title>
<path fill="#757575" d="M3.093 0h-2.773c-0.177 0-0.32 0.143-0.32 0.32v1.92c0 0.177 0.143 0.32 0.32 0.32h2.773c0.177 0 0.32-0.143 0.32-0.32v-1.92c0-0.177-0.143-0.32-0.32-0.32zM3.093 0.213c0 0 0.001 0 0.001 0 0.015 0 0.029 0.003 0.042 0.009l-0.001-0-1.429 1.237-1.429-1.237c0.012-0.005 0.027-0.009 0.042-0.009 0 0 0.001 0 0.001 0h2.773zM3.093 2.347h-2.773c-0.059 0-0.107-0.048-0.107-0.107v0-1.792l1.423 1.233c0.019 0.016 0.043 0.027 0.070 0.027s0.052-0.010 0.071-0.027l-0 0 1.423-1.233v1.792c0 0.059-0.048 0.107-0.107 0.107v0z"></path>
</svg>
