<!-- Generated by IcoMoon.io -->
<svg version="1.1" xmlns="http://www.w3.org/2000/svg" width="64" height="32" viewBox="0 0 64 32">
<title>smartphone</title>
<path fill="#757575" d="M1.813 0h-1.493c-0.177 0-0.32 0.143-0.32 0.32v2.773c0 0.177 0.143 0.32 0.32 0.32h1.493c0.177 0 0.32-0.143 0.32-0.32v-2.773c0-0.177-0.143-0.32-0.32-0.32zM0.32 0.213h1.493c0.060 0 0.107 0.047 0.107 0.107v2.24h-1.707v-2.24c0-0.060 0.047-0.107 0.107-0.107zM1.813 3.2h-1.493c-0.059 0-0.107-0.048-0.107-0.107v0-0.32h1.707v0.32c0 0.059-0.048 0.107-0.107 0.107v0z"></path>
<path fill="#757575" d="M0.501 2.931c0.043 0.038 0.043 0.102 0 0.141-0.020 0.018-0.046 0.028-0.075 0.028s-0.055-0.011-0.075-0.028l0 0c-0.019-0.018-0.031-0.043-0.031-0.070s0.012-0.053 0.031-0.070l0-0c0.043-0.038 0.107-0.038 0.149 0z"></path>
</svg>
