<!-- Generated by IcoMoon.io -->
<svg version="1.1" xmlns="http://www.w3.org/2000/svg" width="64" height="32" viewBox="0 0 64 32">
<title>twitter</title>
<path fill="#afb1b8" d="M4.267 0.811c-0.158 0.070-0.329 0.115-0.503 0.139 0.181-0.109 0.32-0.277 0.384-0.484-0.171 0.1-0.356 0.171-0.555 0.213-0.16-0.173-0.389-0.281-0.642-0.281-0.483 0-0.875 0.392-0.875 0.875 0 0.072 0.009 0.141 0.025 0.208l-0.001-0.006c-0.728-0.037-1.369-0.384-1.797-0.911l-0.004-0.005c-0.074 0.126-0.118 0.279-0.118 0.441 0 0.301 0.151 0.567 0.382 0.726l0.003 0.002c-0.139 0-0.277-0.043-0.395-0.107v0.009c0 0.427 0.303 0.779 0.702 0.86-0.069 0.020-0.148 0.031-0.23 0.031-0.059 0-0.116-0.006-0.172-0.017l0.006 0.001c0.117 0.35 0.438 0.599 0.818 0.608l0.001 0c-0.296 0.235-0.675 0.377-1.088 0.377-0.073 0-0.145-0.004-0.216-0.013l0.008 0.001c0.377 0.246 0.838 0.393 1.334 0.393 0.003 0 0.006 0 0.009 0h-0c1.611 0 2.49-1.333 2.49-2.49 0-0.038 0-0.077-0.004-0.113 0.175-0.124 0.32-0.277 0.439-0.454z"></path>
</svg>
